<?xml version="1.0" encoding="utf-8"?>
<!DOCTYPE svg PUBLIC "-//W3C//DTD SVG 1.1//EN" "http://www.w3.org/Graphics/SVG/1.1/DTD/svg11.dtd">
<svg version="1.1" xmlns="http://www.w3.org/2000/svg" width="580px" height="800px" viewBox="0 0 580 800" preserveAspectRatio="xMidYMid meet">
 <g fill="#070707">
  <path d="M6 776.3 c0 -41.3 7.7 -75.3 25.5 -111.8 25.1 -51.6 66.1 -86.4 117.5 -99.5 13.3 -3.4 31.8 -6 42.6 -6 6.7 0 7.4 0.2 7.4 2 0 1.9 0.7 2 12 2 l12 0 0 -26.4 c0 -26.3 0 -26.3 -6.2 -29.6 -43 -22.7 -74 -65.9 -81.5 -113.2 -1.5 -9.7 -1.9 -10.8 -3.8 -10.8 -4.1 0 -14.1 -5.7 -18.3 -10.5 -7.8 -8.8 -8.3 -11.8 -8 -42.9 0.3 -26.9 0.3 -27.1 2.9 -32.7 3.4 -7.1 9.1 -12.9 15.8 -15.9 3.6 -1.7 5 -2.8 4.7 -3.9 -0.6 -1.9 -2.3 -22.8 -3.5 -41.1 -0.7 -11.2 -1.2 -13.6 -2.6 -14.5 -6.9 -4 -11.9 -11.8 -14.6 -22.5 -1.8 -7.3 -1.6 -29 0.4 -40.2 2.2 -12 8 -29 12.7 -36.8 4.5 -7.6 10.8 -14.2 15 -16 2.9 -1.2 2.9 -1.2 2.9 -9.9 0 -10.3 1.1 -16.1 4.7 -26.1 8.7 -24.5 23.1 -41.6 44.6 -53.4 18.6 -10.3 42.3 -14.8 65.6 -12.6 15.6 1.5 21.5 2.8 54.3 12.5 51.5 15.3 91.8 24.5 107.3 24.5 6.5 0 18.1 -2.4 24.2 -5 4.2 -1.8 4.2 -1.8 2.8 4 -5.2 22.3 -17.4 35.8 -36.4 40.2 -2.7 0.6 -5 1.4 -5 1.8 0 1.5 11.4 3.3 24 3.7 12 0.4 14.8 0.2 25.5 -2.2 6.6 -1.5 17 -4.7 23 -7.2 6.1 -2.5 11.5 -4.7 12.1 -5 1.6 -0.6 0.9 5.9 -2.6 23.7 -4.5 22.7 -12.7 43.7 -23.7 60.7 -4 6.1 -4 6.1 -4.7 28 -1 32.6 -3.2 67.2 -5.9 92.6 -0.2 1.8 5.3 4.4 14.2 6.7 4.3 1.1 6.4 3.2 6.7 6.7 0.1 1.6 1.5 5.5 3 8.8 2.7 5.8 2.8 6.5 3.2 27 0.5 22.8 -0.5 33.1 -3.9 39.7 -4.4 8.6 -13.6 16 -22.2 17.7 -3 0.6 -3.1 0.7 -4.9 11.6 -3.9 23.5 -14.5 47.9 -29.7 68.2 -13.2 17.7 -29.1 31.6 -48.8 42.6 l-9.3 5.2 0 26.3 0 26.2 12 0 c11.3 0 12 -0.1 12 -2 0 -1.8 0.7 -2 7.4 -2 10.7 0 30.4 2.7 43.2 6 58.3 15 103.1 58.1 126.9 122 11 29.3 15.5 54.8 15.5 86.7 l0 18.3 -284 0 -284 0 0 -15.7z"/>
 </g>
 <g fill="#291916">
  <path d="M199 677.5 l0 -114.5 12 0 12 0 0 -26.4 c0 -26.3 0 -26.3 -6.2 -29.6 -43 -22.7 -74 -65.9 -81.5 -113.2 -1.5 -9.7 -1.9 -10.8 -3.8 -10.8 -4.1 0 -14.1 -5.7 -18.3 -10.5 -7.8 -8.8 -8.3 -11.8 -8 -42.9 0.3 -26.9 0.3 -27.1 2.9 -32.7 3.4 -7.1 9.1 -12.9 15.8 -15.9 3.6 -1.7 5 -2.8 4.7 -3.9 -0.6 -1.9 -2.3 -22.8 -3.5 -41.1 -0.7 -11.2 -1.2 -13.6 -2.6 -14.5 -6.9 -4 -11.9 -11.8 -14.6 -22.5 -1.8 -7.3 -1.6 -29 0.4 -40.2 2.2 -12 8 -29 12.7 -36.8 4.5 -7.6 10.8 -14.2 15 -16 2.9 -1.2 2.9 -1.2 2.9 -9.9 0 -10.3 1.1 -16.1 4.7 -26.1 8.7 -24.5 23.1 -41.6 44.6 -53.4 18.6 -10.3 42.3 -14.8 65.6 -12.6 15.6 1.5 21.5 2.8 54.3 12.5 51.5 15.3 91.8 24.5 107.3 24.5 6.5 0 18.1 -2.4 24.2 -5 4.2 -1.8 4.2 -1.8 2.8 4 -5.2 22.3 -17.4 35.8 -36.4 40.2 -2.7 0.6 -5 1.4 -5 1.8 0 1.5 11.4 3.3 24 3.7 12 0.4 14.8 0.2 25.5 -2.2 6.6 -1.5 17 -4.7 23 -7.2 6.1 -2.5 11.5 -4.7 12.1 -5 1.6 -0.6 0.9 5.9 -2.6 23.7 -4.5 22.7 -12.7 43.7 -23.7 60.7 -4 6.1 -4 6.1 -4.7 28 -1 32.6 -3.2 67.2 -5.9 92.6 -0.2 1.8 5.3 4.4 14.2 6.7 4.3 1.1 6.4 3.2 6.7 6.7 0.1 1.6 1.5 5.5 3 8.8 2.7 5.8 2.8 6.5 3.2 27 0.5 22.8 -0.5 33.1 -3.9 39.7 -4.4 8.6 -13.6 16 -22.2 17.7 -3 0.6 -3.1 0.7 -4.9 11.6 -3.9 23.5 -14.5 47.9 -29.7 68.2 -13.2 17.7 -29.1 31.6 -48.8 42.6 l-9.3 5.2 0 26.3 0 26.2 12 0 12 0 0 114.5 0 114.5 -91 0 -91 0 0 -114.5z"/>
 </g>
 <g fill="#282828">
  <path d="M6 776.3 c0 -41.3 7.7 -75.3 25.5 -111.8 24.6 -50.8 65.6 -85.9 115.5 -99.1 9 -2.3 25.5 -5.4 29.3 -5.4 1.6 0 1.7 6.2 1.7 116 l0 116 -86 0 -86 0 0 -15.7z"/>
  <path d="M199 677.5 l0 -114.5 12 0 12 0 0 -26.4 c0 -26.3 0 -26.3 -6.2 -29.6 -43 -22.7 -74 -65.9 -81.5 -113.2 -1.5 -9.7 -1.9 -10.8 -3.8 -10.8 -4.1 0 -14.1 -5.7 -18.3 -10.5 -7.8 -8.8 -8.3 -11.8 -8 -42.9 0.3 -26.9 0.3 -27.1 2.9 -32.7 3.3 -6.9 8.9 -12.7 15.2 -15.7 5.7 -2.7 5.7 -2.7 5.7 -0.2 0 1.8 0.7 2 7 2 6.4 0 7 -0.2 7.5 -2.3 0.9 -4.1 3.4 -30.1 4.5 -47.2 1 -15.3 1.3 -17 3.2 -18.4 9.2 -6.4 22.9 -18.4 30.4 -26.7 l9.1 -10 13.9 7.3 c32.2 16.8 62.1 26.9 96.9 32.4 12.6 2.1 47.8 1.8 60 -0.5 21.6 -3.9 37.7 -9.9 54.5 -20 l10.5 -6.3 0.7 8.6 c0.3 4.7 1.1 19.6 1.8 33.1 1.8 37.2 2 38.7 6.6 44.8 3.6 4.8 4.1 5.2 8 5.2 3.8 0 4.3 -0.3 4.6 -2.4 0.3 -2.5 0.3 -2.5 5.8 -0.5 3 1.1 7 2.4 8.9 2.9 4.3 1.1 6.4 3.2 6.7 6.7 0.1 1.6 1.5 5.5 3 8.8 2.7 5.8 2.8 6.5 3.2 27 0.5 22.8 -0.5 33.1 -3.9 39.7 -4.4 8.6 -13.6 16 -22.2 17.7 -3 0.6 -3.1 0.7 -4.9 11.6 -3.9 23.5 -14.5 47.9 -29.7 68.2 -13.2 17.7 -29.1 31.6 -48.8 42.6 l-9.3 5.2 0 26.3 0 26.2 12 0 12 0 0 114.5 0 114.5 -91 0 -91 0 0 -114.5z m-61.2 -374.7 c0.5 -0.7 1.3 -2.3 1.6 -3.5 0.7 -2.1 0.4 -2.3 -3.3 -2.3 -4.4 0 -4.7 0.5 -2.9 4.5 1.2 2.7 3 3.2 4.6 1.3z"/>
  <path d="M402 676 c0 -109.8 0.1 -116 1.8 -116 4 0 21.4 3.2 30.1 5.6 57.1 15.4 101.2 58.4 124.6 121.4 11 29.3 15.5 54.8 15.5 86.7 l0 18.3 -86 0 -86 0 0 -116z"/>
 </g>
 <g fill="#252c2f">
  <path d="M199 677.5 l0 -114.5 12 0 12 0 0 -26.4 c0 -26.3 0 -26.3 -6.2 -29.6 -43 -22.7 -74 -65.9 -81.5 -113.2 -1.5 -9.7 -1.9 -10.8 -3.8 -10.8 -4.1 0 -14.1 -5.7 -18.3 -10.5 -7.6 -8.6 -8.2 -11.8 -8.2 -41.8 0 -25.1 0.1 -26.4 2.4 -31.9 2.6 -6.4 8.1 -13.8 10.2 -13.8 0.8 0 1.4 -0.5 1.4 -1.1 0 -0.5 0.4 -0.7 1 -0.4 0.5 0.3 1 0.1 1 -0.4 0 -0.9 6.1 -4.1 7.6 -4.1 0.2 0 0.4 0.9 0.4 2 0 1.8 0.7 2 7 2 6.4 0 7 -0.2 7.5 -2.3 0.9 -4.1 3.4 -30.1 4.5 -47.2 1 -15.3 1.3 -17 3.2 -18.4 9.2 -6.4 22.9 -18.4 30.4 -26.7 l9.1 -10 13.9 7.3 c32.2 16.8 62.1 26.9 96.9 32.4 12.6 2.1 47.8 1.8 60 -0.5 21.6 -3.9 37.7 -9.9 54.5 -20 l10.5 -6.3 0.7 8.6 c0.3 4.7 1.1 19.6 1.8 33.1 1.7 36.1 2 38.6 6.1 44.8 3.3 5 3.5 5.2 8.1 5.2 4.2 0 4.7 -0.2 5 -2.4 0.3 -2.5 0.3 -2.5 5.8 -0.5 3 1.1 7 2.4 8.9 2.9 4.3 1.1 6.4 3.2 6.7 6.7 0.1 1.6 1.5 5.5 3 8.8 2.7 5.8 2.8 6.5 3.2 27 0.5 22.8 -0.5 33.1 -3.9 39.7 -4.4 8.6 -13.6 16 -22.2 17.7 -3 0.6 -3.1 0.7 -4.9 11.6 -3.9 23.5 -14.5 47.9 -29.7 68.2 -13.2 17.7 -29.1 31.6 -48.8 42.6 l-9.3 5.2 0 26.3 0 26.2 12 0 12 0 0 114.5 0 114.5 -91 0 -91 0 0 -114.5z m-1 -294 c0 -0.3 -0.2 -0.5 -0.5 -0.5 -0.3 0 -0.5 0.2 -0.5 0.5 0 0.3 0.2 0.5 0.5 0.5 0.3 0 0.5 -0.2 0.5 -0.5z m16 0 c0 -0.3 -0.2 -0.5 -0.5 -0.5 -0.3 0 -0.5 0.2 -0.5 0.5 0 0.3 0.2 0.5 0.5 0.5 0.3 0 0.5 -0.2 0.5 -0.5z m159 0 c0 -0.3 -0.2 -0.5 -0.5 -0.5 -0.3 0 -0.5 0.2 -0.5 0.5 0 0.3 0.2 0.5 0.5 0.5 0.3 0 0.5 -0.2 0.5 -0.5z m-181 -1 c0 -0.3 -0.2 -0.5 -0.5 -0.5 -0.3 0 -0.5 0.2 -0.5 0.5 0 0.3 0.2 0.5 0.5 0.5 0.3 0 0.5 -0.2 0.5 -0.5z m203 0 c0 -0.3 -0.2 -0.5 -0.5 -0.5 -0.3 0 -0.5 0.2 -0.5 0.5 0 0.3 0.2 0.5 0.5 0.5 0.3 0 0.5 -0.2 0.5 -0.5z m-33 -1 c0 -0.3 -0.2 -0.5 -0.5 -0.5 -0.3 0 -0.5 0.2 -0.5 0.5 0 0.3 0.2 0.5 0.5 0.5 0.3 0 0.5 -0.2 0.5 -0.5z m37 0 c0 -0.3 -0.2 -0.5 -0.5 -0.5 -0.3 0 -0.5 0.2 -0.5 0.5 0 0.3 0.2 0.5 0.5 0.5 0.3 0 0.5 -0.2 0.5 -0.5z m-40 -1 c0 -0.3 -0.2 -0.5 -0.5 -0.5 -0.3 0 -0.5 0.2 -0.5 0.5 0 0.3 0.2 0.5 0.5 0.5 0.3 0 0.5 -0.2 0.5 -0.5z m43 0 c0 -0.3 -0.2 -0.5 -0.5 -0.5 -0.3 0 -0.5 0.2 -0.5 0.5 0 0.3 0.2 0.5 0.5 0.5 0.3 0 0.5 -0.2 0.5 -0.5z m-220 -1 c0 -0.3 -0.2 -0.5 -0.5 -0.5 -0.3 0 -0.5 0.2 -0.5 0.5 0 0.3 0.2 0.5 0.5 0.5 0.3 0 0.5 -0.2 0.5 -0.5z m48 0 c0 -0.3 -0.2 -0.5 -0.5 -0.5 -0.3 0 -0.5 0.2 -0.5 0.5 0 0.3 0.2 0.5 0.5 0.5 0.3 0 0.5 -0.2 0.5 -0.5z m120 -3 c0 -0.3 -0.2 -0.5 -0.5 -0.5 -0.3 0 -0.5 0.2 -0.5 0.5 0 0.3 0.2 0.5 0.5 0.5 0.3 0 0.5 -0.2 0.5 -0.5z m-2 -1 c0 -0.3 -0.2 -0.5 -0.5 -0.5 -0.3 0 -0.5 0.2 -0.5 0.5 0 0.3 0.2 0.5 0.5 0.5 0.3 0 0.5 -0.2 0.5 -0.5z m-176 -1 c0 -0.3 -0.2 -0.5 -0.5 -0.5 -0.3 0 -0.5 0.2 -0.5 0.5 0 0.3 0.2 0.5 0.5 0.5 0.3 0 0.5 -0.2 0.5 -0.5z m243 0 c0 -0.3 -0.2 -0.5 -0.5 -0.5 -0.3 0 -0.5 0.2 -0.5 0.5 0 0.3 0.2 0.5 0.5 0.5 0.3 0 0.5 -0.2 0.5 -0.5z m-210 -1 c0 -0.3 -0.2 -0.5 -0.5 -0.5 -0.3 0 -0.5 0.2 -0.5 0.5 0 0.3 0.2 0.5 0.5 0.5 0.3 0 0.5 -0.2 0.5 -0.5z m2 0 c0 -0.3 -0.2 -0.5 -0.5 -0.5 -0.3 0 -0.5 0.2 -0.5 0.5 0 0.3 0.2 0.5 0.5 0.5 0.3 0 0.5 -0.2 0.5 -0.5z m35 0 c0 -0.3 -0.2 -0.5 -0.5 -0.5 -0.3 0 -0.5 0.2 -0.5 0.5 0 0.3 0.2 0.5 0.5 0.5 0.3 0 0.5 -0.2 0.5 -0.5z m103 0 c0 -0.3 -0.2 -0.5 -0.5 -0.5 -0.3 0 -0.5 0.2 -0.5 0.5 0 0.3 0.2 0.5 0.5 0.5 0.3 0 0.5 -0.2 0.5 -0.5z m34 0 c0 -0.3 -0.2 -0.5 -0.5 -0.5 -0.3 0 -0.5 0.2 -0.5 0.5 0 0.3 0.2 0.5 0.5 0.5 0.3 0 0.5 -0.2 0.5 -0.5z m3 0 c0 -0.3 -0.2 -0.5 -0.5 -0.5 -0.3 0 -0.5 0.2 -0.5 0.5 0 0.3 0.2 0.5 0.5 0.5 0.3 0 0.5 -0.2 0.5 -0.5z m-12 -1 c0 -0.3 -0.2 -0.5 -0.5 -0.5 -0.3 0 -0.5 0.2 -0.5 0.5 0 0.3 0.2 0.5 0.5 0.5 0.3 0 0.5 -0.2 0.5 -0.5z m21 0 c0 -0.3 -0.2 -0.5 -0.5 -0.5 -0.3 0 -0.5 0.2 -0.5 0.5 0 0.3 0.2 0.5 0.5 0.5 0.3 0 0.5 -0.2 0.5 -0.5z m-146 -1 c0 -0.3 -0.2 -0.5 -0.5 -0.5 -0.3 0 -0.5 0.2 -0.5 0.5 0 0.3 0.2 0.5 0.5 0.5 0.3 0 0.5 -0.2 0.5 -0.5z m97 0 c0 -0.3 -0.2 -0.5 -0.5 -0.5 -0.3 0 -0.5 0.2 -0.5 0.5 0 0.3 0.2 0.5 0.5 0.5 0.3 0 0.5 -0.2 0.5 -0.5z m24 0 c0 -0.3 -0.2 -0.5 -0.5 -0.5 -0.3 0 -0.5 0.2 -0.5 0.5 0 0.3 0.2 0.5 0.5 0.5 0.3 0 0.5 -0.2 0.5 -0.5z m-200 -1 c0 -0.3 -0.2 -0.5 -0.5 -0.5 -0.3 0 -0.5 0.2 -0.5 0.5 0 0.3 0.2 0.5 0.5 0.5 0.3 0 0.5 -0.2 0.5 -0.5z m22 0 c0 -0.3 -0.2 -0.5 -0.5 -0.5 -0.3 0 -0.5 0.2 -0.5 0.5 0 0.3 0.2 0.5 0.5 0.5 0.3 0 0.5 -0.2 0.5 -0.5z m36 0 c0 -0.3 -0.2 -0.5 -0.5 -0.5 -0.3 0 -0.5 0.2 -0.5 0.5 0 0.3 0.2 0.5 0.5 0.5 0.3 0 0.5 -0.2 0.5 -0.5z m197 0 c0 -0.3 -0.2 -0.5 -0.5 -0.5 -0.3 0 -0.5 0.2 -0.5 0.5 0 0.3 0.2 0.5 0.5 0.5 0.3 0 0.5 -0.2 0.5 -0.5z m-236 -1 c0 -0.3 -0.2 -0.5 -0.5 -0.5 -0.3 0 -0.5 0.2 -0.5 0.5 0 0.3 0.2 0.5 0.5 0.5 0.3 0 0.5 -0.2 0.5 -0.5z m42 0 c0 -0.3 -0.2 -0.5 -0.5 -0.5 -0.3 0 -0.5 0.2 -0.5 0.5 0 0.3 0.2 0.5 0.5 0.5 0.3 0 0.5 -0.2 0.5 -0.5z m22 -1 c0 -0.3 -0.2 -0.5 -0.5 -0.5 -0.3 0 -0.5 0.2 -0.5 0.5 0 0.3 0.2 0.5 0.5 0.5 0.3 0 0.5 -0.2 0.5 -0.5z m155 0 c0 -0.3 -0.2 -0.5 -0.5 -0.5 -0.3 0 -0.5 0.2 -0.5 0.5 0 0.3 0.2 0.5 0.5 0.5 0.3 0 0.5 -0.2 0.5 -0.5z m2 -1 c0 -0.3 -0.2 -0.5 -0.5 -0.5 -0.3 0 -0.5 0.2 -0.5 0.5 0 0.3 0.2 0.5 0.5 0.5 0.3 0 0.5 -0.2 0.5 -0.5z m-245 -1 c0 -0.3 -0.2 -0.5 -0.5 -0.5 -0.3 0 -0.5 0.2 -0.5 0.5 0 0.3 0.2 0.5 0.5 0.5 0.3 0 0.5 -0.2 0.5 -0.5z m247 0 c0 -0.3 -0.2 -0.5 -0.5 -0.5 -0.3 0 -0.5 0.2 -0.5 0.5 0 0.3 0.2 0.5 0.5 0.5 0.3 0 0.5 -0.2 0.5 -0.5z m18.5 -0.5 c0.3 -0.5 0.4 -1 0.1 -1 -0.3 0 -0.8 0.5 -1.1 1 -0.3 0.6 -0.4 1 -0.1 1 0.3 0 0.8 -0.4 1.1 -1z m-191.5 -0.5 c0 -0.3 -0.2 -0.5 -0.5 -0.5 -0.3 0 -0.5 0.2 -0.5 0.5 0 0.3 0.2 0.5 0.5 0.5 0.3 0 0.5 -0.2 0.5 -0.5z m115 -1 c0 -0.3 -0.2 -0.5 -0.5 -0.5 -0.3 0 -0.5 0.2 -0.5 0.5 0 0.3 0.2 0.5 0.5 0.5 0.3 0 0.5 -0.2 0.5 -0.5z m-176 -1 c0 -0.3 -0.2 -0.5 -0.5 -0.5 -0.3 0 -0.5 0.2 -0.5 0.5 0 0.3 0.2 0.5 0.5 0.5 0.3 0 0.5 -0.2 0.5 -0.5z m239 0 c0 -0.3 -0.2 -0.5 -0.5 -0.5 -0.3 0 -0.5 0.2 -0.5 0.5 0 0.3 0.2 0.5 0.5 0.5 0.3 0 0.5 -0.2 0.5 -0.5z m16 0 c0 -0.3 -0.2 -0.5 -0.5 -0.5 -0.3 0 -0.5 0.2 -0.5 0.5 0 0.3 0.2 0.5 0.5 0.5 0.3 0 0.5 -0.2 0.5 -0.5z m-273 -2 c0 -0.3 -0.2 -0.5 -0.5 -0.5 -0.3 0 -0.5 0.2 -0.5 0.5 0 0.3 0.2 0.5 0.5 0.5 0.3 0 0.5 -0.2 0.5 -0.5z m85 0 c0 -0.3 -0.2 -0.5 -0.5 -0.5 -0.3 0 -0.5 0.2 -0.5 0.5 0 0.3 0.2 0.5 0.5 0.5 0.3 0 0.5 -0.2 0.5 -0.5z m105 0 c0 -0.3 -0.2 -0.5 -0.5 -0.5 -0.3 0 -0.5 0.2 -0.5 0.5 0 0.3 0.2 0.5 0.5 0.5 0.3 0 0.5 -0.2 0.5 -0.5z m-88 -2 c0 -0.3 -0.2 -0.5 -0.5 -0.5 -0.3 0 -0.5 0.2 -0.5 0.5 0 0.3 0.2 0.5 0.5 0.5 0.3 0 0.5 -0.2 0.5 -0.5z m176 -2 c0 -0.3 -0.2 -0.5 -0.5 -0.5 -0.3 0 -0.5 0.2 -0.5 0.5 0 0.3 0.2 0.5 0.5 0.5 0.3 0 0.5 -0.2 0.5 -0.5z m-282 -1 c0 -0.3 -0.2 -0.5 -0.5 -0.5 -0.3 0 -0.5 0.2 -0.5 0.5 0 0.3 0.2 0.5 0.5 0.5 0.3 0 0.5 -0.2 0.5 -0.5z m13 -1 c0 -0.3 -0.2 -0.5 -0.5 -0.5 -0.3 0 -0.5 0.2 -0.5 0.5 0 0.3 0.2 0.5 0.5 0.5 0.3 0 0.5 -0.2 0.5 -0.5z m96 0 c0 -0.3 -0.2 -0.5 -0.5 -0.5 -0.3 0 -0.5 0.2 -0.5 0.5 0 0.3 0.2 0.5 0.5 0.5 0.3 0 0.5 -0.2 0.5 -0.5z m65 0 c0 -0.3 -0.2 -0.5 -0.5 -0.5 -0.3 0 -0.5 0.2 -0.5 0.5 0 0.3 0.2 0.5 0.5 0.5 0.3 0 0.5 -0.2 0.5 -0.5z m111 -2 c0 -0.3 -0.2 -0.5 -0.5 -0.5 -0.3 0 -0.5 0.2 -0.5 0.5 0 0.3 0.2 0.5 0.5 0.5 0.3 0 0.5 -0.2 0.5 -0.5z m-187 -1 c0 -0.3 -0.2 -0.5 -0.5 -0.5 -0.3 0 -0.5 0.2 -0.5 0.5 0 0.3 0.2 0.5 0.5 0.5 0.3 0 0.5 -0.2 0.5 -0.5z m13 0 c0 -0.3 -0.2 -0.5 -0.5 -0.5 -0.3 0 -0.5 0.2 -0.5 0.5 0 0.3 0.2 0.5 0.5 0.5 0.3 0 0.5 -0.2 0.5 -0.5z m61 0 c0 -0.3 -0.2 -0.5 -0.5 -0.5 -0.3 0 -0.5 0.2 -0.5 0.5 0 0.3 0.2 0.5 0.5 0.5 0.3 0 0.5 -0.2 0.5 -0.5z m12 -1 c0 -0.3 -0.2 -0.5 -0.5 -0.5 -0.3 0 -0.5 0.2 -0.5 0.5 0 0.3 0.2 0.5 0.5 0.5 0.3 0 0.5 -0.2 0.5 -0.5z m-14 -2 c0 -0.3 -0.2 -0.5 -0.5 -0.5 -0.3 0 -0.5 0.2 -0.5 0.5 0 0.3 0.2 0.5 0.5 0.5 0.3 0 0.5 -0.2 0.5 -0.5z m118 -1 c0 -0.3 -0.2 -0.5 -0.5 -0.5 -0.3 0 -0.5 0.2 -0.5 0.5 0 0.3 0.2 0.5 0.5 0.5 0.3 0 0.5 -0.2 0.5 -0.5z m-119 -1 c0 -0.3 -0.2 -0.5 -0.5 -0.5 -0.3 0 -0.5 0.2 -0.5 0.5 0 0.3 0.2 0.5 0.5 0.5 0.3 0 0.5 -0.2 0.5 -0.5z m108 -1 c0 -0.3 -0.2 -0.5 -0.5 -0.5 -0.3 0 -0.5 0.2 -0.5 0.5 0 0.3 0.2 0.5 0.5 0.5 0.3 0 0.5 -0.2 0.5 -0.5z m12 0 c0 -0.3 -0.2 -0.5 -0.5 -0.5 -0.3 0 -0.5 0.2 -0.5 0.5 0 0.3 0.2 0.5 0.5 0.5 0.3 0 0.5 -0.2 0.5 -0.5z m-186 -1 c0 -0.3 -0.2 -0.5 -0.5 -0.5 -0.3 0 -0.5 0.2 -0.5 0.5 0 0.3 0.2 0.5 0.5 0.5 0.3 0 0.5 -0.2 0.5 -0.5z m-99 -2 c0 -0.3 -0.2 -0.5 -0.5 -0.5 -0.3 0 -0.5 0.2 -0.5 0.5 0 0.3 0.2 0.5 0.5 0.5 0.3 0 0.5 -0.2 0.5 -0.5z m-12 -1 c0 -0.3 -0.2 -0.5 -0.5 -0.5 -0.3 0 -0.5 0.2 -0.5 0.5 0 0.3 0.2 0.5 0.5 0.5 0.3 0 0.5 -0.2 0.5 -0.5z m125 -2 c0 -0.3 -0.2 -0.5 -0.5 -0.5 -0.3 0 -0.5 0.2 -0.5 0.5 0 0.3 0.2 0.5 0.5 0.5 0.3 0 0.5 -0.2 0.5 -0.5z m49 0 c0 -0.3 -0.2 -0.5 -0.5 -0.5 -0.3 0 -0.5 0.2 -0.5 0.5 0 0.3 0.2 0.5 0.5 0.5 0.3 0 0.5 -0.2 0.5 -0.5z m-60 -1 c0 -0.3 -0.2 -0.5 -0.5 -0.5 -0.3 0 -0.5 0.2 -0.5 0.5 0 0.3 0.2 0.5 0.5 0.5 0.3 0 0.5 -0.2 0.5 -0.5z m175 -1 c0 -0.3 -0.2 -0.5 -0.5 -0.5 -0.3 0 -0.5 0.2 -0.5 0.5 0 0.3 0.2 0.5 0.5 0.5 0.3 0 0.5 -0.2 0.5 -0.5z m-105 -1 c0 -0.3 -0.2 -0.5 -0.5 -0.5 -0.3 0 -0.5 0.2 -0.5 0.5 0 0.3 0.2 0.5 0.5 0.5 0.3 0 0.5 -0.2 0.5 -0.5z m-175 -1 c0 -0.3 -0.2 -0.5 -0.5 -0.5 -0.3 0 -0.5 0.2 -0.5 0.5 0 0.3 0.2 0.5 0.5 0.5 0.3 0 0.5 -0.2 0.5 -0.5z m163 -2 c0 -0.3 -0.2 -0.5 -0.5 -0.5 -0.3 0 -0.5 0.2 -0.5 0.5 0 0.3 0.2 0.5 0.5 0.5 0.3 0 0.5 -0.2 0.5 -0.5z m130 -2 c0 -0.3 -0.2 -0.5 -0.5 -0.5 -0.3 0 -0.5 0.2 -0.5 0.5 0 0.3 0.2 0.5 0.5 0.5 0.3 0 0.5 -0.2 0.5 -0.5z m-120 -1 c0 -0.3 -0.2 -0.5 -0.5 -0.5 -0.3 0 -0.5 0.2 -0.5 0.5 0 0.3 0.2 0.5 0.5 0.5 0.3 0 0.5 -0.2 0.5 -0.5z m-54 -2 c0 -0.3 -0.2 -0.5 -0.5 -0.5 -0.3 0 -0.5 0.2 -0.5 0.5 0 0.3 0.2 0.5 0.5 0.5 0.3 0 0.5 -0.2 0.5 -0.5z m164 0 c0 -0.3 -0.2 -0.5 -0.5 -0.5 -0.3 0 -0.5 0.2 -0.5 0.5 0 0.3 0.2 0.5 0.5 0.5 0.3 0 0.5 -0.2 0.5 -0.5z m-296 -2 c0 -0.3 -0.2 -0.5 -0.5 -0.5 -0.3 0 -0.5 0.2 -0.5 0.5 0 0.3 0.2 0.5 0.5 0.5 0.3 0 0.5 -0.2 0.5 -0.5z m307 0 c0 -0.3 -0.2 -0.5 -0.5 -0.5 -0.3 0 -0.5 0.2 -0.5 0.5 0 0.3 0.2 0.5 0.5 0.5 0.3 0 0.5 -0.2 0.5 -0.5z m-297 -3 c0 -0.3 -0.2 -0.5 -0.5 -0.5 -0.3 0 -0.5 0.2 -0.5 0.5 0 0.3 0.2 0.5 0.5 0.5 0.3 0 0.5 -0.2 0.5 -0.5z m164 0 c0 -0.3 -0.2 -0.5 -0.5 -0.5 -0.3 0 -0.5 0.2 -0.5 0.5 0 0.3 0.2 0.5 0.5 0.5 0.3 0 0.5 -0.2 0.5 -0.5z m123 -1 c0 -0.3 -0.2 -0.5 -0.5 -0.5 -0.3 0 -0.5 0.2 -0.5 0.5 0 0.3 0.2 0.5 0.5 0.5 0.3 0 0.5 -0.2 0.5 -0.5z m-164.3 -2.2 c-0.4 -0.3 -0.7 0 -0.7 0.7 0 0.7 0.3 1 0.7 0.7 0.3 -0.4 0.3 -1 0 -1.4z m-133.7 -2.8 c0 -0.3 -0.2 -0.5 -0.5 -0.5 -0.3 0 -0.5 0.2 -0.5 0.5 0 0.3 0.2 0.5 0.5 0.5 0.3 0 0.5 -0.2 0.5 -0.5z m-0.3 -5.2 c-0.4 -0.3 -0.7 0 -0.7 0.7 0 0.7 0.3 1 0.7 0.7 0.3 -0.4 0.3 -1 0 -1.4z m134 -3 c-0.4 -0.3 -0.7 0 -0.7 0.7 0 0.7 0.3 1 0.7 0.7 0.3 -0.4 0.3 -1 0 -1.4z m41.3 -0.8 c0 -0.3 -0.2 -0.5 -0.5 -0.5 -0.3 0 -0.5 0.2 -0.5 0.5 0 0.3 0.2 0.5 0.5 0.5 0.3 0 0.5 -0.2 0.5 -0.5z m-164 -1 c0 -0.3 -0.2 -0.5 -0.5 -0.5 -0.3 0 -0.5 0.2 -0.5 0.5 0 0.3 0.2 0.5 0.5 0.5 0.3 0 0.5 -0.2 0.5 -0.5z m112 -1 c0 -0.3 -0.2 -0.5 -0.5 -0.5 -0.3 0 -0.5 0.2 -0.5 0.5 0 0.3 0.2 0.5 0.5 0.5 0.3 0 0.5 -0.2 0.5 -0.5z m63 -1 c0 -0.3 -0.2 -0.5 -0.5 -0.5 -0.3 0 -0.5 0.2 -0.5 0.5 0 0.3 0.2 0.5 0.5 0.5 0.3 0 0.5 -0.2 0.5 -0.5z m-186.1 -6 c0.8 -1.7 1.9 -3.3 2.5 -3.7 0.6 -0.4 -1.5 -0.8 -4.7 -0.8 -5.7 0 -5.7 0 -4.2 3.6 0.8 2 1.5 3.8 1.5 4.1 0 0.2 0.8 0.3 1.7 0.1 1 -0.2 2.4 -1.7 3.2 -3.3z m12.1 3 c0 -0.3 -0.2 -0.5 -0.5 -0.5 -0.3 0 -0.5 0.2 -0.5 0.5 0 0.3 0.2 0.5 0.5 0.5 0.3 0 0.5 -0.2 0.5 -0.5z m110 -1 c0 -0.3 -0.2 -0.5 -0.5 -0.5 -0.3 0 -0.5 0.2 -0.5 0.5 0 0.3 0.2 0.5 0.5 0.5 0.3 0 0.5 -0.2 0.5 -0.5z m10.7 -1.2 c-0.4 -0.3 -0.7 0 -0.7 0.7 0 0.7 0.3 1 0.7 0.7 0.3 -0.4 0.3 -1 0 -1.4z m55.3 -2.8 c0 -0.3 -0.2 -0.5 -0.5 -0.5 -0.3 0 -0.5 0.2 -0.5 0.5 0 0.3 0.2 0.5 0.5 0.5 0.3 0 0.5 -0.2 0.5 -0.5z m-174 -2 c0 -0.3 -0.2 -0.5 -0.5 -0.5 -0.3 0 -0.5 0.2 -0.5 0.5 0 0.3 0.2 0.5 0.5 0.5 0.3 0 0.5 -0.2 0.5 -0.5z m293 0 c0 -0.3 -0.2 -0.5 -0.5 -0.5 -0.3 0 -0.5 0.2 -0.5 0.5 0 0.3 0.2 0.5 0.5 0.5 0.3 0 0.5 -0.2 0.5 -0.5z m-118 -1 c0 -0.3 -0.2 -0.5 -0.5 -0.5 -0.3 0 -0.5 0.2 -0.5 0.5 0 0.3 0.2 0.5 0.5 0.5 0.3 0 0.5 -0.2 0.5 -0.5z m139 0 c0 -0.3 -0.2 -0.5 -0.5 -0.5 -0.3 0 -0.5 0.2 -0.5 0.5 0 0.3 0.2 0.5 0.5 0.5 0.3 0 0.5 -0.2 0.5 -0.5z m-193 -1 c0 -0.3 -0.2 -0.5 -0.5 -0.5 -0.3 0 -0.5 0.2 -0.5 0.5 0 0.3 0.2 0.5 0.5 0.5 0.3 0 0.5 -0.2 0.5 -0.5z m-16 -1 c0 -0.3 -0.2 -0.5 -0.5 -0.5 -0.3 0 -0.5 0.2 -0.5 0.5 0 0.3 0.2 0.5 0.5 0.5 0.3 0 0.5 -0.2 0.5 -0.5z m-141 -1 c0 -0.3 -0.2 -0.5 -0.5 -0.5 -0.3 0 -0.5 0.2 -0.5 0.5 0 0.3 0.2 0.5 0.5 0.5 0.3 0 0.5 -0.2 0.5 -0.5z m315 0 c0 -0.3 -0.2 -0.5 -0.5 -0.5 -0.3 0 -0.5 0.2 -0.5 0.5 0 0.3 0.2 0.5 0.5 0.5 0.3 0 0.5 -0.2 0.5 -0.5z m-175 -1 c0 -0.3 -0.2 -0.5 -0.5 -0.5 -0.3 0 -0.5 0.2 -0.5 0.5 0 0.3 0.2 0.5 0.5 0.5 0.3 0 0.5 -0.2 0.5 -0.5z m53 0 c0 -0.3 -0.2 -0.5 -0.5 -0.5 -0.3 0 -0.5 0.2 -0.5 0.5 0 0.3 0.2 0.5 0.5 0.5 0.3 0 0.5 -0.2 0.5 -0.5z m121 -1 c0 -0.3 -0.2 -0.5 -0.5 -0.5 -0.3 0 -0.5 0.2 -0.5 0.5 0 0.3 0.2 0.5 0.5 0.5 0.3 0 0.5 -0.2 0.5 -0.5z m-175 -1 c0 -0.3 -0.2 -0.5 -0.5 -0.5 -0.3 0 -0.5 0.2 -0.5 0.5 0 0.3 0.2 0.5 0.5 0.5 0.3 0 0.5 -0.2 0.5 -0.5z m75 0 c0 -0.3 -0.2 -0.5 -0.5 -0.5 -0.3 0 -0.5 0.2 -0.5 0.5 0 0.3 0.2 0.5 0.5 0.5 0.3 0 0.5 -0.2 0.5 -0.5z m99 -1 c0 -0.3 -0.2 -0.5 -0.5 -0.5 -0.3 0 -0.5 0.2 -0.5 0.5 0 0.3 0.2 0.5 0.5 0.5 0.3 0 0.5 -0.2 0.5 -0.5z m-110 -1 c0 -0.3 -0.2 -0.5 -0.5 -0.5 -0.3 0 -0.5 0.2 -0.5 0.5 0 0.3 0.2 0.5 0.5 0.5 0.3 0 0.5 -0.2 0.5 -0.5z m-39 -1 c0 -0.3 -0.2 -0.5 -0.5 -0.5 -0.3 0 -0.5 0.2 -0.5 0.5 0 0.3 0.2 0.5 0.5 0.5 0.3 0 0.5 -0.2 0.5 -0.5z m-13 -2 c0 -0.3 -0.2 -0.5 -0.5 -0.5 -0.3 0 -0.5 0.2 -0.5 0.5 0 0.3 0.2 0.5 0.5 0.5 0.3 0 0.5 -0.2 0.5 -0.5z m31 -1 c0 -0.3 -0.2 -0.5 -0.5 -0.5 -0.3 0 -0.5 0.2 -0.5 0.5 0 0.3 0.2 0.5 0.5 0.5 0.3 0 0.5 -0.2 0.5 -0.5z m-138 -1 c0 -0.3 -0.2 -0.5 -0.5 -0.5 -0.3 0 -0.5 0.2 -0.5 0.5 0 0.3 0.2 0.5 0.5 0.5 0.3 0 0.5 -0.2 0.5 -0.5z m103 0 c0 -0.3 -0.2 -0.5 -0.5 -0.5 -0.3 0 -0.5 0.2 -0.5 0.5 0 0.3 0.2 0.5 0.5 0.5 0.3 0 0.5 -0.2 0.5 -0.5z m27.7 -0.2 c-0.4 -0.3 -1 -0.3 -1.4 0 -0.3 0.4 0 0.7 0.7 0.7 0.7 0 1 -0.3 0.7 -0.7z m2.3 0.2 c0 -0.3 -0.2 -0.5 -0.5 -0.5 -0.3 0 -0.5 0.2 -0.5 0.5 0 0.3 0.2 0.5 0.5 0.5 0.3 0 0.5 -0.2 0.5 -0.5z m132 0 c0 -0.3 -0.2 -0.5 -0.5 -0.5 -0.3 0 -0.5 0.2 -0.5 0.5 0 0.3 0.2 0.5 0.5 0.5 0.3 0 0.5 -0.2 0.5 -0.5z m-87.5 -3.5 c1 -1.1 1.6 -2 1.3 -2 -0.3 0 -1.3 0.9 -2.3 2 -1 1.1 -1.6 2 -1.3 2 0.3 0 1.3 -0.9 2.3 -2z m-90.5 -0.4 c0 -0.3 -0.5 -0.8 -1.2 -1.2 -0.7 -0.4 -0.8 -0.3 -0.4 0.4 0.7 1.2 1.6 1.6 1.6 0.8z m78 -1.1 c0 -0.3 -0.2 -0.5 -0.5 -0.5 -0.3 0 -0.5 0.2 -0.5 0.5 0 0.3 0.2 0.5 0.5 0.5 0.3 0 0.5 -0.2 0.5 -0.5z m-66 -1 c0 -0.3 -0.2 -0.5 -0.5 -0.5 -0.3 0 -0.5 0.2 -0.5 0.5 0 0.3 0.2 0.5 0.5 0.5 0.3 0 0.5 -0.2 0.5 -0.5z m-15 -0.8 c0 -0.2 -1 -1.2 -2.2 -2.3 -2.3 -1.9 -2.3 -1.9 -0.4 0.4 1.8 2.1 2.6 2.7 2.6 1.9z m58 -2.2 c0 -0.3 -0.2 -0.5 -0.5 -0.5 -0.3 0 -0.5 0.2 -0.5 0.5 0 0.3 0.2 0.5 0.5 0.5 0.3 0 0.5 -0.2 0.5 -0.5z m-131.5 -1.5 c0.3 -0.5 0.4 -1 0.1 -1 -0.3 0 -0.8 0.5 -1.1 1 -0.3 0.6 -0.4 1 -0.1 1 0.3 0 0.8 -0.4 1.1 -1z m85.5 0.5 c0 -0.3 -0.2 -0.5 -0.5 -0.5 -0.3 0 -0.5 0.2 -0.5 0.5 0 0.3 0.2 0.5 0.5 0.5 0.3 0 0.5 -0.2 0.5 -0.5z m30 0 c0 -0.3 -0.2 -0.5 -0.5 -0.5 -0.3 0 -0.5 0.2 -0.5 0.5 0 0.3 0.2 0.5 0.5 0.5 0.3 0 0.5 -0.2 0.5 -0.5z m12 0 c0 -0.3 -0.2 -0.5 -0.5 -0.5 -0.3 0 -0.5 0.2 -0.5 0.5 0 0.3 0.2 0.5 0.5 0.5 0.3 0 0.5 -0.2 0.5 -0.5z m46 0 c0 -0.3 -0.2 -0.5 -0.5 -0.5 -0.3 0 -0.5 0.2 -0.5 0.5 0 0.3 0.2 0.5 0.5 0.5 0.3 0 0.5 -0.2 0.5 -0.5z m-188 -2 c0 -0.3 -0.2 -0.5 -0.5 -0.5 -0.3 0 -0.5 0.2 -0.5 0.5 0 0.3 0.2 0.5 0.5 0.5 0.3 0 0.5 -0.2 0.5 -0.5z m18 -1 c0 -0.3 -0.2 -0.5 -0.5 -0.5 -0.3 0 -0.5 0.2 -0.5 0.5 0 0.3 0.2 0.5 0.5 0.5 0.3 0 0.5 -0.2 0.5 -0.5z m174 0 c0 -0.3 -0.2 -0.5 -0.5 -0.5 -0.3 0 -0.5 0.2 -0.5 0.5 0 0.3 0.2 0.5 0.5 0.5 0.3 0 0.5 -0.2 0.5 -0.5z m-190 -1 c0 -0.3 -0.2 -0.5 -0.5 -0.5 -0.3 0 -0.5 0.2 -0.5 0.5 0 0.3 0.2 0.5 0.5 0.5 0.3 0 0.5 -0.2 0.5 -0.5z m252 0 c0 -0.3 -0.2 -0.5 -0.5 -0.5 -0.3 0 -0.5 0.2 -0.5 0.5 0 0.3 0.2 0.5 0.5 0.5 0.3 0 0.5 -0.2 0.5 -0.5z m-233 -1 c0 -0.3 -0.2 -0.5 -0.5 -0.5 -0.3 0 -0.5 0.2 -0.5 0.5 0 0.3 0.2 0.5 0.5 0.5 0.3 0 0.5 -0.2 0.5 -0.5z m2 -1 c0 -0.3 -0.2 -0.5 -0.5 -0.5 -0.3 0 -0.5 0.2 -0.5 0.5 0 0.3 0.2 0.5 0.5 0.5 0.3 0 0.5 -0.2 0.5 -0.5z m71 0.1 c0 -0.3 -0.5 -0.8 -1.2 -1.2 -0.7 -0.4 -0.8 -0.3 -0.4 0.4 0.7 1.2 1.6 1.6 1.6 0.8z m-69 -1.1 c0 -0.3 -0.2 -0.5 -0.5 -0.5 -0.3 0 -0.5 0.2 -0.5 0.5 0 0.3 0.2 0.5 0.5 0.5 0.3 0 0.5 -0.2 0.5 -0.5z m223 0 c0 -0.3 -0.2 -0.5 -0.5 -0.5 -0.3 0 -0.5 0.2 -0.5 0.5 0 0.3 0.2 0.5 0.5 0.5 0.3 0 0.5 -0.2 0.5 -0.5z m-221 -1 c0 -0.3 -0.2 -0.5 -0.5 -0.5 -0.3 0 -0.5 0.2 -0.5 0.5 0 0.3 0.2 0.5 0.5 0.5 0.3 0 0.5 -0.2 0.5 -0.5z m154 0 c0 -0.3 -0.2 -0.5 -0.5 -0.5 -0.3 0 -0.5 0.2 -0.5 0.5 0 0.3 0.2 0.5 0.5 0.5 0.3 0 0.5 -0.2 0.5 -0.5z m65 0 c0 -0.3 -0.2 -0.5 -0.5 -0.5 -0.3 0 -0.5 0.2 -0.5 0.5 0 0.3 0.2 0.5 0.5 0.5 0.3 0 0.5 -0.2 0.5 -0.5z m-216.3 -1.2 c-0.4 -0.3 -1 -0.3 -1.4 0 -0.3 0.4 0 0.7 0.7 0.7 0.7 0 1 -0.3 0.7 -0.7z m214 0 c-0.4 -0.3 -1 -0.3 -1.4 0 -0.3 0.4 0 0.7 0.7 0.7 0.7 0 1 -0.3 0.7 -0.7z m-211.7 -0.8 c0 -0.3 -0.2 -0.5 -0.5 -0.5 -0.3 0 -0.5 0.2 -0.5 0.5 0 0.3 0.2 0.5 0.5 0.5 0.3 0 0.5 -0.2 0.5 -0.5z m174 0 c0 -0.3 -0.2 -0.5 -0.5 -0.5 -0.3 0 -0.5 0.2 -0.5 0.5 0 0.3 0.2 0.5 0.5 0.5 0.3 0 0.5 -0.2 0.5 -0.5z m35 0 c0 -0.3 -0.2 -0.5 -0.5 -0.5 -0.3 0 -0.5 0.2 -0.5 0.5 0 0.3 0.2 0.5 0.5 0.5 0.3 0 0.5 -0.2 0.5 -0.5z m-205 -1 c0 -0.3 -0.2 -0.5 -0.5 -0.5 -0.3 0 -0.5 0.2 -0.5 0.5 0 0.3 0.2 0.5 0.5 0.5 0.3 0 0.5 -0.2 0.5 -0.5z m27 0 c0 -0.3 -0.2 -0.5 -0.5 -0.5 -0.3 0 -0.5 0.2 -0.5 0.5 0 0.3 0.2 0.5 0.5 0.5 0.3 0 0.5 -0.2 0.5 -0.5z m25 0 c0 -0.3 -0.2 -0.5 -0.5 -0.5 -0.3 0 -0.5 0.2 -0.5 0.5 0 0.3 0.2 0.5 0.5 0.5 0.3 0 0.5 -0.2 0.5 -0.5z m97.5 -0.5 c0.3 -0.5 0.4 -1 0.1 -1 -0.3 0 -0.8 0.5 -1.1 1 -0.3 0.6 -0.4 1 -0.1 1 0.3 0 0.8 -0.4 1.1 -1z m24.5 0.5 c0 -0.3 -0.2 -0.5 -0.5 -0.5 -0.3 0 -0.5 0.2 -0.5 0.5 0 0.3 0.2 0.5 0.5 0.5 0.3 0 0.5 -0.2 0.5 -0.5z m26.7 -0.2 c-0.4 -0.3 -1 -0.3 -1.4 0 -0.3 0.4 0 0.7 0.7 0.7 0.7 0 1 -0.3 0.7 -0.7z m25.3 0.2 c0 -0.3 -0.2 -0.5 -0.5 -0.5 -0.3 0 -0.5 0.2 -0.5 0.5 0 0.3 0.2 0.5 0.5 0.5 0.3 0 0.5 -0.2 0.5 -0.5z m-220.3 -1.2 c-0.4 -0.3 -1 -0.3 -1.4 0 -0.3 0.4 0 0.7 0.7 0.7 0.7 0 1 -0.3 0.7 -0.7z m16 0.1 c-0.3 -0.3 -1.2 -0.4 -1.9 -0.1 -0.8 0.3 -0.5 0.6 0.6 0.6 1.1 0.1 1.7 -0.2 1.3 -0.5z m158 -0.1 c-0.4 -0.3 -1 -0.3 -1.4 0 -0.3 0.4 0 0.7 0.7 0.7 0.7 0 1 -0.3 0.7 -0.7z m16 0 c-0.4 -0.3 -1 -0.3 -1.4 0 -0.3 0.4 0 0.7 0.7 0.7 0.7 0 1 -0.3 0.7 -0.7z m27.3 -0.8 c0 -0.3 -0.2 -0.5 -0.5 -0.5 -0.3 0 -0.5 0.2 -0.5 0.5 0 0.3 0.2 0.5 0.5 0.5 0.3 0 0.5 -0.2 0.5 -0.5z m-70 -1 c0 -0.3 -0.2 -0.5 -0.5 -0.5 -0.3 0 -0.5 0.2 -0.5 0.5 0 0.3 0.2 0.5 0.5 0.5 0.3 0 0.5 -0.2 0.5 -0.5z m2 -1 c0 -0.3 -0.2 -0.5 -0.5 -0.5 -0.3 0 -0.5 0.2 -0.5 0.5 0 0.3 0.2 0.5 0.5 0.5 0.3 0 0.5 -0.2 0.5 -0.5z m-172 -1 c0 -0.3 -0.2 -0.5 -0.5 -0.5 -0.3 0 -0.5 0.2 -0.5 0.5 0 0.3 0.2 0.5 0.5 0.5 0.3 0 0.5 -0.2 0.5 -0.5z m61 0 c0 -0.3 -0.2 -0.5 -0.5 -0.5 -0.3 0 -0.5 0.2 -0.5 0.5 0 0.3 0.2 0.5 0.5 0.5 0.3 0 0.5 -0.2 0.5 -0.5z m113 0 c0 -0.3 -0.2 -0.5 -0.5 -0.5 -0.3 0 -0.5 0.2 -0.5 0.5 0 0.3 0.2 0.5 0.5 0.5 0.3 0 0.5 -0.2 0.5 -0.5z m-172 -1 c0 -0.3 -0.2 -0.5 -0.5 -0.5 -0.3 0 -0.5 0.2 -0.5 0.5 0 0.3 0.2 0.5 0.5 0.5 0.3 0 0.5 -0.2 0.5 -0.5z m57 0 c0 -0.3 -0.2 -0.5 -0.5 -0.5 -0.3 0 -0.5 0.2 -0.5 0.5 0 0.3 0.2 0.5 0.5 0.5 0.3 0 0.5 -0.2 0.5 -0.5z m117 0 c0 -0.3 -0.2 -0.5 -0.5 -0.5 -0.3 0 -0.5 0.2 -0.5 0.5 0 0.3 0.2 0.5 0.5 0.5 0.3 0 0.5 -0.2 0.5 -0.5z m-172 -1 c0 -0.3 -0.2 -0.5 -0.5 -0.5 -0.3 0 -0.5 0.2 -0.5 0.5 0 0.3 0.2 0.5 0.5 0.5 0.3 0 0.5 -0.2 0.5 -0.5z m52 0 c0 -0.3 -0.2 -0.5 -0.5 -0.5 -0.3 0 -0.5 0.2 -0.5 0.5 0 0.3 0.2 0.5 0.5 0.5 0.3 0 0.5 -0.2 0.5 -0.5z m122 0 c0 -0.3 -0.2 -0.5 -0.5 -0.5 -0.3 0 -0.5 0.2 -0.5 0.5 0 0.3 0.2 0.5 0.5 0.5 0.3 0 0.5 -0.2 0.5 -0.5z m-171 -1 c0 -0.3 -0.2 -0.5 -0.5 -0.5 -0.3 0 -0.5 0.2 -0.5 0.5 0 0.3 0.2 0.5 0.5 0.5 0.3 0 0.5 -0.2 0.5 -0.5z m47 0 c0 -0.3 -0.2 -0.5 -0.5 -0.5 -0.3 0 -0.5 0.2 -0.5 0.5 0 0.3 0.2 0.5 0.5 0.5 0.3 0 0.5 -0.2 0.5 -0.5z m127 0 c0 -0.3 -0.2 -0.5 -0.5 -0.5 -0.3 0 -0.5 0.2 -0.5 0.5 0 0.3 0.2 0.5 0.5 0.5 0.3 0 0.5 -0.2 0.5 -0.5z m47 0 c0 -0.3 -0.2 -0.5 -0.5 -0.5 -0.3 0 -0.5 0.2 -0.5 0.5 0 0.3 0.2 0.5 0.5 0.5 0.3 0 0.5 -0.2 0.5 -0.5z m-177 -1 c0 -0.3 -0.2 -0.5 -0.5 -0.5 -0.3 0 -0.5 0.2 -0.5 0.5 0 0.3 0.2 0.5 0.5 0.5 0.3 0 0.5 -0.2 0.5 -0.5z m132 0 c0 -0.3 -0.2 -0.5 -0.5 -0.5 -0.3 0 -0.5 0.2 -0.5 0.5 0 0.3 0.2 0.5 0.5 0.5 0.3 0 0.5 -0.2 0.5 -0.5z m42 0 c0 -0.3 -0.2 -0.5 -0.5 -0.5 -0.3 0 -0.5 0.2 -0.5 0.5 0 0.3 0.2 0.5 0.5 0.5 0.3 0 0.5 -0.2 0.5 -0.5z m-212 -1 c0 -0.3 -0.2 -0.5 -0.5 -0.5 -0.3 0 -0.5 0.2 -0.5 0.5 0 0.3 0.2 0.5 0.5 0.5 0.3 0 0.5 -0.2 0.5 -0.5z m35 0 c0 -0.3 -0.2 -0.5 -0.5 -0.5 -0.3 0 -0.5 0.2 -0.5 0.5 0 0.3 0.2 0.5 0.5 0.5 0.3 0 0.5 -0.2 0.5 -0.5z m138.7 -0.2 c-0.4 -0.3 -1 -0.3 -1.4 0 -0.3 0.4 0 0.7 0.7 0.7 0.7 0 1 -0.3 0.7 -0.7z m35.3 0.2 c0 -0.3 -0.2 -0.5 -0.5 -0.5 -0.3 0 -0.5 0.2 -0.5 0.5 0 0.3 0.2 0.5 0.5 0.5 0.3 0 0.5 -0.2 0.5 -0.5z m-179 -1 c0 -0.3 -0.2 -0.5 -0.5 -0.5 -0.3 0 -0.5 0.2 -0.5 0.5 0 0.3 0.2 0.5 0.5 0.5 0.3 0 0.5 -0.2 0.5 -0.5z m148 0 c0 -0.3 -0.2 -0.5 -0.5 -0.5 -0.3 0 -0.5 0.2 -0.5 0.5 0 0.3 0.2 0.5 0.5 0.5 0.3 0 0.5 -0.2 0.5 -0.5z m26 0 c0 -0.3 -0.2 -0.5 -0.5 -0.5 -0.3 0 -0.5 0.2 -0.5 0.5 0 0.3 0.2 0.5 0.5 0.5 0.3 0 0.5 -0.2 0.5 -0.5z m-192 -1 c0 -0.3 -0.2 -0.5 -0.5 -0.5 -0.3 0 -0.5 0.2 -0.5 0.5 0 0.3 0.2 0.5 0.5 0.5 0.3 0 0.5 -0.2 0.5 -0.5z m10 0 c0 -0.3 -0.2 -0.5 -0.5 -0.5 -0.3 0 -0.5 0.2 -0.5 0.5 0 0.3 0.2 0.5 0.5 0.5 0.3 0 0.5 -0.2 0.5 -0.5z m165 0 c0 -0.3 -0.2 -0.5 -0.5 -0.5 -0.3 0 -0.5 0.2 -0.5 0.5 0 0.3 0.2 0.5 0.5 0.5 0.3 0 0.5 -0.2 0.5 -0.5z m9.7 -0.2 c-0.4 -0.3 -1 -0.3 -1.4 0 -0.3 0.4 0 0.7 0.7 0.7 0.7 0 1 -0.3 0.7 -0.7z"/>
 </g>
 <g fill="#433329">
  <path d="M199 677.5 l0 -114.5 12 0 12 0 0 -26.4 c0 -26.3 0 -26.3 -6.2 -29.6 -43 -22.7 -74 -65.9 -81.5 -113.2 -1.5 -9.7 -1.9 -10.8 -3.8 -10.8 -4.1 0 -14.1 -5.7 -18.3 -10.5 -7.8 -8.8 -8.3 -11.8 -8 -42.9 0.3 -26.9 0.3 -27.1 2.9 -32.6 1.5 -3 4.1 -7.1 5.7 -9 3.1 -3.5 3.1 -3.5 2.5 0.3 -0.9 5.7 1.5 7.7 8.9 7.7 5.8 0 5.8 0 7.4 4 2 5 4.1 4.9 6.7 0 1.8 -3.5 1.8 -3.5 1.2 0 -2.8 15.6 -2.5 24.5 1.1 37 3.3 11.7 12.5 24.9 22.7 32.6 21.7 16.4 47.2 18.8 71.7 6.8 16.8 -8.3 29.5 -23.9 34.6 -42.4 1.4 -4.9 1.8 -10.3 1.9 -22 0 -17.7 0.8 -20.2 8.2 -25.4 5.2 -3.6 10.6 -4.6 16.7 -3.1 6.2 1.6 9.4 4.1 13.1 10 3 4.8 3 4.9 3.1 20.4 0 12 0.5 16.9 1.8 21.1 3 9 7.2 17.1 12.3 23.5 33.1 41 96.7 30.7 115.6 -18.8 3 -7.9 3.1 -8.7 3 -22.7 -0.1 -8 -0.3 -15.8 -0.5 -17.5 -0.3 -3 -0.3 -3 10.2 -3.3 9 -0.2 10.7 -0.5 12.1 -2.2 1.6 -1.9 1.8 -1.7 4.5 4.3 2.7 6 2.8 6.8 3.2 27.2 0.5 22.9 -0.5 33.1 -3.9 39.7 -4.4 8.6 -13.6 16 -22.2 17.7 -3 0.6 -3.1 0.7 -4.9 11.6 -3.9 23.5 -14.5 47.9 -29.7 68.2 -13.2 17.7 -29.1 31.6 -48.8 42.6 l-9.3 5.2 0 26.3 0 26.2 12 0 12 0 0 114.5 0 114.5 -91 0 -91 0 0 -114.5z"/>
  <path d="M199 372.8 c-32.9 -3.4 -55.7 -35.6 -48.6 -68.6 4.7 -21.6 24.4 -39.9 46.9 -43.4 44.6 -6.9 78.9 39.9 59.1 80.7 -10.5 21.5 -33.1 33.9 -57.4 31.3z"/>
  <path d="M374 372.9 c-23.3 -2.8 -42.5 -19.4 -48.5 -41.9 -1.9 -7.2 -1.9 -21 0 -28.5 7.2 -28.3 35.9 -46.8 64.1 -41.5 13.7 2.6 23.4 7.9 32.3 17.6 20.7 22.6 19.7 56.9 -2.2 78.2 -12.9 12.4 -29 18.1 -45.7 16.1z"/>
  <path d="M315.9 282.7 c-11.6 -13.6 -32.1 -14.3 -45.3 -1.5 -2.8 2.7 -5.2 4.4 -5.4 3.9 -0.2 -0.5 -2.5 -4.1 -5.2 -7.9 -5 -7.1 -12.2 -13.9 -19.9 -18.7 -15.5 -9.6 -38.2 -11.8 -56.8 -5.4 -12 4.1 -26.6 15.3 -32.9 25.3 -2.1 3.3 -3.6 4.6 -5.2 4.6 -1.8 0 -2.1 -0.4 -1.7 -2.2 0.9 -4.2 3.4 -30.2 4.5 -47.3 1 -15.3 1.3 -17 3.2 -18.4 9.2 -6.4 22.9 -18.4 30.4 -26.7 l9.1 -10 13.9 7.3 c32.2 16.8 62.1 26.9 96.9 32.4 12.6 2.1 47.8 1.8 60 -0.5 21.6 -3.9 37.7 -9.9 54.5 -20 5.8 -3.5 10.6 -6.3 10.7 -6.2 0.1 0.1 0.7 10.7 1.3 23.6 1.2 27.3 2.8 52.5 3.6 55.9 0.4 1.9 -0.8 1.2 -6.3 -3.8 -31.3 -28.8 -81.5 -21.6 -102.4 14.7 -1.7 2.8 -3.1 5.2 -3.2 5.2 -0.1 -0.1 -1.8 -2 -3.8 -4.3z"/>
 </g>
 <g fill="#554034">
  <path d="M199 677.5 l0 -114.5 12 0 12 0 0 -26.4 c0 -26.3 0 -26.3 -6.2 -29.6 -43 -22.7 -74 -65.9 -81.5 -113.2 -1.5 -9.7 -1.9 -10.8 -3.8 -10.8 -4.1 0 -14.1 -5.7 -18.3 -10.5 -7.8 -8.8 -8.3 -11.8 -8 -42.9 0.3 -26.9 0.3 -27.1 2.9 -32.6 1.5 -3 4 -7.1 5.7 -9 3 -3.5 3 -3.5 2.5 0.5 -0.7 5.6 1.8 7.7 9.7 8.3 5.3 0.4 5.9 0.7 6.5 3.1 0.7 2.8 2.3 5.1 3.5 5.1 0.4 0 1.8 -1.9 3 -4.2 1.3 -2.7 2 -3.3 1.6 -1.8 -3.1 14.5 -2.7 26 1.3 39 8.2 26.3 35.2 45.9 63.3 46 26 0.1 48.8 -14.1 60.4 -37.5 6 -12.1 7.7 -21.3 6.9 -37 -0.6 -11.3 -0.5 -12.2 1.7 -16 1.3 -2.1 4.2 -5.2 6.5 -6.9 8.1 -5.6 21 -4.4 26.9 2.7 5.1 6 5.8 9 5.9 25.2 0.1 13.8 0.3 15.7 3 23.4 15 43.7 65.4 59.7 103.6 32.9 6.2 -4.3 16.5 -16.1 19.8 -22.6 5.1 -10.1 6.6 -17.2 6.6 -30.7 0 -7.1 -0.3 -14.6 -0.8 -16.6 -0.7 -3.7 -0.7 -3.7 9.9 -4.1 9.5 -0.3 10.8 -0.6 12.4 -2.5 1.8 -2.2 1.8 -2.2 4.6 4 2.7 6 2.8 6.8 3.2 27.2 0.5 22.9 -0.5 33.1 -3.9 39.7 -4.4 8.6 -13.6 16 -22.2 17.7 -3 0.6 -3.1 0.7 -4.9 11.6 -3.9 23.5 -14.5 47.9 -29.7 68.2 -13.2 17.7 -29.1 31.6 -48.8 42.6 l-9.3 5.2 0 26.3 0 26.2 12 0 12 0 0 114.5 0 114.5 -91 0 -91 0 0 -114.5z m64.8 -228.4 c5.1 -2.6 15.4 -3.1 21.9 -1.1 3.5 1.1 5 1.1 9 -0.1 10 -2.8 19.5 -1.1 28.4 5.2 2.7 1.9 2.7 1.9 6.6 -2.4 6.9 -7.5 11.3 -16.7 12.8 -26.9 0.5 -3.6 0.3 -4.7 -1.3 -6.2 -2.9 -2.6 -5.2 -1.7 -6.7 2.7 -1.6 4.8 -2.8 6.1 -6.9 8.1 -2.9 1.4 -8.3 1.6 -36.1 1.6 -39 0 -39.7 -0.2 -43 -9.7 -1.4 -4 -3 -4.9 -7.1 -3.9 -3.9 1 -4.6 3.7 -2.9 11.1 1.9 8.3 6.1 16.7 11.5 22.8 4.2 4.7 4.2 4.7 6.8 2.8 1.5 -1 4.6 -2.8 7 -4z"/>
  <path d="M199.2 372.8 c-9.8 -1.1 -20.1 -5.2 -28.1 -11.2 -5.2 -3.9 -12.9 -13.5 -16.3 -20.3 -9.7 -19.8 -6.6 -45 7.6 -60.8 3.9 -4.3 4.5 -4.7 4.6 -2.7 0 1.2 0.3 2.2 0.6 2.2 0.3 0 3.1 -1.8 6.1 -4 5.9 -4.2 21.9 -10.9 32.5 -13.6 12.9 -3.3 26 1.5 38.8 14.5 11.8 11.8 17 24 17 39.6 0 34.1 -29.1 60.1 -62.8 56.3z"/>
  <path d="M374.5 372.9 c-39 -3.8 -62.2 -46.4 -44.7 -81.9 4 -8 15.8 -20 24 -24.3 10.8 -5.7 14 -6.2 22.5 -3.7 4 1.2 10.4 2.8 14.2 3.7 3.9 0.8 10.5 3.2 14.8 5.2 4.2 2.1 7.7 3.6 7.7 3.4 0 -0.3 -1.4 -2.3 -3.2 -4.5 -3.2 -4 -3.2 -4 0.3 -2.3 5.3 2.8 16.3 14.4 19.4 20.5 12.1 23.9 9 48 -8.7 66.5 -12.3 13.1 -28.6 19.2 -46.3 17.4z"/>
  <path d="M315.7 282.4 c-5.2 -6 -12.4 -9.6 -20.8 -10.2 -9.8 -0.7 -16.6 1.7 -23.7 8.4 -3.1 3 -5.6 5.2 -5.7 5.1 0 -0.1 -2.2 -3.4 -4.8 -7.3 -5.3 -8 -13.8 -16.2 -21.2 -20.7 -20.5 -12.2 -50.9 -11 -71.2 2.9 -7.1 5 -15.7 13.5 -18.5 18.5 -1.4 2.6 -2.9 3.9 -4.3 3.9 -2.1 0 -2.1 -0.1 -0.8 -10.2 1.1 -9.2 4.2 -48.2 4.3 -54 0.1 -1.7 2.1 -3.7 7.8 -7.8 4.2 -3 13.7 -11.5 21 -18.9 13.3 -13.5 13.3 -13.5 20 -9.7 34 18.9 75.8 32.8 110.4 36.6 41.4 4.4 81.9 -4.1 111.3 -23.3 5.7 -3.8 7 -4.3 7.2 -2.9 0.2 0.9 1 15.6 1.8 32.7 0.8 17.1 1.8 34.6 2.2 39 l0.6 8 -5.4 -5.1 c-6.3 -5.8 -16.1 -11.9 -23.7 -14.5 -14.8 -5.1 -34.7 -4.7 -48.5 1.1 -11.8 4.9 -26.4 18.4 -32.1 29.8 -0.9 1.7 -1.8 3.2 -1.9 3.2 -0.1 -0.1 -1.9 -2.1 -4 -4.6z"/>
  <path d="M119 283.5 c0 -0.3 0.2 -0.5 0.5 -0.5 0.3 0 0.5 0.2 0.5 0.5 0 0.3 -0.2 0.5 -0.5 0.5 -0.3 0 -0.5 -0.2 -0.5 -0.5z"/>
  <path d="M121 282.5 c0 -0.4 6.7 -3.5 7.6 -3.5 0.2 0 0.4 0.9 0.4 2 0 1.7 -0.7 2 -4 2 -2.2 0 -4 -0.2 -4 -0.5z"/>
  <path d="M448 280.5 c0 -2.4 0 -2.4 4.3 -1.1 8.3 2.5 8.9 3.5 2 3.6 -6 0 -6.3 -0.1 -6.3 -2.5z"/>
 </g>
 <g fill="#c64558">
  <path d="M199.2 677.8 l0.3 -114.3 11.8 -0.3 11.7 -0.3 0 -26.3 c0 -26.3 0 -26.3 -6.2 -29.6 -43 -22.7 -74 -65.9 -81.5 -113.2 -1.5 -9.7 -1.9 -10.8 -3.8 -10.8 -4.1 0 -14.1 -5.7 -18.3 -10.5 -7.8 -8.8 -8.3 -11.8 -8 -42.9 0.3 -26.9 0.3 -27.1 2.9 -32.6 1.5 -3 4 -7 5.6 -8.9 2.9 -3.4 2.9 -3.4 2.5 0.9 -0.6 5.7 2.1 7.9 9.6 8 5.2 0 5.2 0 6.8 4 1.8 4.5 3.5 5 5.9 1.8 1.6 -2.2 1.6 -2.2 0.8 1.7 -0.4 2.2 -0.8 8.5 -0.7 14 0.1 18.4 6.2 32.5 19.9 46.2 13.5 13.3 28.8 19.6 48 19.5 25.2 -0.1 48.2 -14.7 59.6 -37.7 5.6 -11.3 7.2 -20.2 6.5 -34.8 -0.5 -9.4 -0.3 -12.5 1 -15.5 5.7 -13.6 22.7 -17.3 33.3 -7.2 5.1 4.9 6.4 10.3 6.2 24.5 -0.1 10.5 0.2 14.4 1.9 20.4 4.1 14.7 10.5 24.7 21.8 34.3 12.2 10.4 26.8 15.9 42.7 16 11.6 0 19.8 -1.8 30.1 -6.8 17.9 -8.7 29.9 -23 36 -43.1 2 -6.6 2.4 -24.9 0.7 -32 -0.6 -2.3 -0.8 -4.4 -0.5 -4.8 0.3 -0.3 4.7 -0.5 9.7 -0.5 7.8 0 9.6 -0.3 11.9 -2.1 2.6 -2.1 2.6 -2.1 5.3 3.8 2.6 5.6 2.7 6.6 3.1 26.8 0.5 22.8 -0.5 33.1 -3.9 39.7 -4.4 8.6 -13.6 16 -22.2 17.7 -3 0.6 -3.1 0.7 -4.9 11.6 -3.9 23.5 -14.5 47.9 -29.7 68.2 -13.2 17.7 -29.1 31.6 -48.8 42.6 l-9.3 5.2 0 26.3 0 26.2 12 0 12 0 0 114.5 0 114.5 -91 0 -91 0 0.2 -114.2z m59.1 -225.1 c7.5 -5.5 17.6 -7.1 27 -4.3 4 1.2 5.4 1.2 9.4 0 9.5 -2.9 18.8 -1.4 27.3 4.2 4.3 2.8 4.3 2.8 8.1 -1.6 6.7 -7.8 12.9 -21.7 12.9 -29.1 0 -3.4 -2.4 -5.9 -5.6 -5.9 -1.9 0 -2.4 0.5 -2.4 2.4 0 3.2 -4.5 8.5 -8.7 10.2 -4.1 1.8 -64.5 2 -69 0.3 -4.2 -1.6 -8.2 -5.8 -8.9 -9.6 -0.6 -3 -0.9 -3.3 -4.4 -3.3 -2.4 0 -4.3 0.7 -5.5 2 -1.7 1.9 -1.8 2.6 -0.6 8.3 0.6 3.4 2.5 9 4.1 12.3 3.2 6.5 10.5 16.4 12.2 16.4 0.5 0 2.4 -1.1 4.1 -2.3z"/>
 </g>
 <g fill="#a17a62">
  <path d="M200 677.5 l0 -114.5 11.5 0 11.5 0 0 -26.4 c0 -26.3 0 -26.3 -6.3 -29.6 -42.9 -22.7 -73.9 -65.9 -81.4 -113.2 -1.5 -9.7 -1.9 -10.8 -3.8 -10.8 -4.1 0 -14.1 -5.7 -18.3 -10.5 -7.8 -8.8 -8.3 -11.8 -8 -42.9 0.3 -26.9 0.3 -27.1 2.9 -32.6 1.5 -3 4 -7 5.6 -8.9 2.9 -3.4 2.9 -3.4 2.5 0.9 -0.6 5.7 2.1 7.9 9.6 8 5.2 0 5.2 0 6.8 4 1.8 4.5 3.5 5 5.9 1.8 1.6 -2.2 1.6 -2.2 0.8 1.7 -0.4 2.2 -0.8 8.5 -0.7 14 0.1 18.4 6.2 32.5 19.9 46.2 13.5 13.3 28.8 19.6 48 19.5 25.2 -0.1 48.2 -14.7 59.6 -37.7 5.6 -11.3 7.2 -20.2 6.5 -34.8 -0.5 -9.4 -0.3 -12.5 1 -15.5 5.7 -13.6 22.7 -17.3 33.3 -7.2 5.1 4.9 6.4 10.3 6.2 24.5 -0.1 10.5 0.2 14.4 1.9 20.4 4.1 14.7 10.5 24.7 21.8 34.3 12.2 10.4 26.8 15.9 42.7 16 11.6 0 19.8 -1.8 30.1 -6.8 17.9 -8.7 29.9 -23 36 -43.1 2 -6.6 2.4 -24.9 0.7 -32 -0.6 -2.3 -0.8 -4.4 -0.5 -4.8 0.3 -0.3 4.7 -0.5 9.7 -0.5 7.8 0 9.6 -0.3 11.9 -2.1 2.6 -2.1 2.6 -2.1 5.3 3.8 2.6 5.6 2.7 6.6 3.1 26.8 0.5 22.8 -0.5 33.1 -3.9 39.7 -4.4 8.6 -13.6 16 -22.2 17.7 -3 0.6 -3.1 0.7 -4.9 11.6 -3.9 23.5 -14.5 47.9 -29.7 68.2 -13.2 17.7 -29.1 31.6 -48.8 42.6 l-9.3 5.2 0 26.3 0 26.2 12 0 12 0 0 114.5 0 114.5 -90.5 0 -90.5 0 0 -114.5z m103.3 -210 c18.2 -4.7 32.7 -19 38.1 -37.4 2.8 -9.5 1.5 -14.1 -4 -14.1 -1.9 0 -2.4 0.5 -2.4 2.4 0 3.2 -4.5 8.5 -8.7 10.2 -4.1 1.8 -64.5 2 -69 0.3 -4.2 -1.6 -8.2 -5.8 -8.9 -9.6 -0.6 -3 -0.9 -3.3 -4.4 -3.3 -2.4 0 -4.3 0.7 -5.5 2 -1.7 1.9 -1.8 2.6 -0.7 8.3 3.8 19.1 19.6 36.1 38.3 41.1 7.1 1.9 20.1 2 27.2 0.1z"/>
  <path d="M196 372.4 c-18 -3.5 -33.4 -15.4 -41.1 -31.9 -9.1 -19.4 -6.8 -40.4 6.2 -57.8 4 -5.3 4.4 -5.7 5.3 -3.8 0.9 2.1 4.1 3.7 6.4 3.2 0.8 -0.1 3.8 -2.6 6.7 -5.6 6.2 -6.2 14.8 -10.7 26 -13.5 10.1 -2.6 14 -2.1 24.8 3.2 26.8 13.4 38.9 46.1 26.9 73 -6.2 14 -19 25.8 -33.5 30.8 -6.1 2.1 -22 3.5 -27.7 2.4z m28.6 -41 c12 -5.7 11.5 -23.6 -0.8 -30 -9.2 -4.8 -21.7 2.1 -23.5 13.1 -0.6 4 1.7 11.3 4.5 13.8 5.3 4.8 13.5 6.1 19.8 3.1z"/>
  <path d="M366.6 371.5 c-24.5 -6.2 -42.7 -29.7 -42.6 -54.9 0 -7.8 2.6 -18.4 6.2 -25.6 4.6 -9 16.1 -20.5 25.2 -24.9 9.5 -4.6 13.7 -4.9 24 -1.7 9.5 2.9 17.4 7.7 22.7 13.8 4.1 4.5 8.2 5.4 10.6 2.2 2 -2.8 1.6 -5 -1.9 -9 -3.3 -3.7 -3.3 -3.7 -0.3 -2.1 9.1 4.7 20.1 19.7 23.9 32.6 2.5 8.6 2.1 24 -0.8 32.3 -6.1 17.3 -18 29.5 -34.6 35.6 -8.4 3.1 -23.7 3.9 -32.4 1.7z m4.4 -40 c7.8 -4 11.1 -14.5 7.1 -22.2 -3.2 -6.3 -7.4 -8.8 -14.8 -8.8 -4.7 0 -6.8 0.5 -9 2.1 -10.2 7.5 -9.9 21.1 0.6 28.1 4 2.7 11.7 3.1 16.1 0.8z"/>
  <path d="M319 286.4 c0 -0.7 -1.8 -3.1 -4.1 -5.4 -11.8 -12.1 -32.2 -12.3 -44.3 -0.4 -2.6 2.6 -4.8 4.5 -5 4.3 -0.2 -0.2 -1.6 -2.4 -3.1 -4.9 -1.5 -2.4 -5.8 -7.4 -9.4 -11.1 -5.8 -6 -6.4 -6.9 -4.8 -7.8 2.6 -1.7 2.2 -6.7 -0.7 -8.6 -5.2 -3.4 -42.7 -4.8 -56 -2 -15.1 3.2 -32.4 14.4 -40.6 26.5 -5.4 8 -7.5 8.1 -6.6 0.3 1.5 -12.1 3.5 -35.3 4.2 -47.5 0.7 -12.7 0.7 -12.7 10 -19.8 5.2 -4 14.5 -12.5 20.7 -19.1 l11.4 -11.9 14.5 7.5 c31 16 59.8 25.9 90.8 31.2 8.1 1.4 16 1.8 34.5 1.8 20.9 0 25.4 -0.3 35 -2.2 21.1 -4.3 38.2 -11 53.6 -21.1 l7.6 -5 0.7 18.7 c0.7 19.6 2.1 44 3.2 55.5 0.6 6.8 0.6 6.8 -3.3 2.9 -8.5 -8.5 -21 -15.2 -33.1 -17.8 -5.7 -1.2 -12.2 -1.4 -30.5 -1.1 -28.5 0.6 -33.7 1.7 -33.7 7.5 0 3.6 1.7 5.1 6 5.1 3.6 0 3.6 0 -3.5 7.3 -3.9 3.9 -8.5 9.7 -10.3 12.7 -1.7 3 -3.2 5 -3.2 4.4z"/>
  <path d="M121.6 282.2 c0.5 -0.5 2.1 -1.3 3.6 -2 2.1 -0.9 2.7 -0.8 3.2 0.4 0.9 2.4 0.9 2.4 -3.6 2.4 -2.3 0 -3.8 -0.4 -3.2 -0.8z"/>
  <path d="M448.2 281.3 c0.5 -2.5 3.6 -2.6 8.3 -0.4 4 1.9 4 1.9 -2.3 2 -5.5 0.1 -6.3 -0.1 -6 -1.6z"/>
 </g>
 <g fill="#e65f5e">
  <path d="M200 677.5 l0 -114.5 11.5 0 11.5 0 0.2 -20.4 0.3 -20.5 5.5 3.6 c18.1 11.7 37.6 18.1 58 19 24.3 1.1 46.8 -4.4 65.8 -16.2 4.2 -2.6 4.2 -2.6 4.2 15.9 l0 18.6 12 0 12 0 0 114.5 0 114.5 -90.5 0 -90.5 0 0 -114.5z"/>
 </g>
 <g fill="#b2876c">
  <path d="M200 777.8 c0.1 -14.3 0.1 -14.3 4 -18.8 4 -4.5 4 -4.5 0 -8.5 -4 -4.1 -4 -4.1 -3.8 -36.4 l0.3 -32.3 17 15.7 c9.4 8.7 18.4 17.1 20.1 18.7 3.2 3 3.2 3 15.8 -10.9 6.9 -7.6 12.6 -14.1 12.6 -14.4 0 -0.3 -14.8 -14.3 -32.9 -31 l-33 -30.4 0 -33.2 -0.1 -33.3 11.5 0 11.5 0 0.2 -20.4 0.3 -20.5 5.5 3.6 c18.1 11.7 37.6 18.1 58 19 24.3 1.1 46.8 -4.4 65.8 -16.2 4.2 -2.6 4.2 -2.6 4.2 15.9 l0 18.6 12.3 0.2 12.2 0.2 -12.5 0.5 c-11.9 0.6 -12.7 0.7 -17 3.7 -10.9 7.6 -27.1 14.2 -41.3 16.9 -26.4 5 -61 -2.3 -83.4 -17.7 -4.2 -2.8 -4.5 -2.9 -15.4 -2.6 l-11.1 0.3 48.6 45 c26.7 24.7 49 45.1 49.5 45.3 0.7 0.2 22.4 -23.1 80.8 -86.8 1.1 -1.2 1.3 4.3 1.3 34.2 l0 35.7 -71 77 -71.1 77.1 -19.4 0 -19.5 0 0 -14.2z"/>
  <path d="M271 525 c-9.9 -1.4 -24.5 -4.9 -34 -8.2 -13.5 -4.7 -34 -17.1 -49.3 -29.8 -26.4 -21.8 -46.9 -58.2 -52.4 -93.2 -1.5 -9.7 -1.9 -10.8 -3.8 -10.8 -4.1 0 -14.1 -5.7 -18.3 -10.5 -7.8 -8.8 -8.3 -11.8 -8 -42.9 0.3 -26.9 0.3 -27.1 2.9 -32.6 1.5 -3 4.1 -7.1 5.8 -9 2.2 -2.4 2.9 -2.8 2.1 -1.2 -1.2 2.5 -0.5 5.8 1.8 8.5 1.1 1.2 3 1.7 7.3 1.7 5.7 0 5.8 0 6.9 3.6 1.3 3.9 3.3 5.2 5.4 3.5 1.1 -0.9 1.2 0.6 0.8 8.7 -0.8 18.2 3.9 33.5 14.7 46.8 8.8 10.9 23.5 20.2 37.1 23.5 7.9 1.9 25.1 1.6 33 -0.5 23.1 -6.3 42.1 -25.3 48.1 -48.2 1.6 -6.5 1.9 -10.4 1.7 -21.9 -0.3 -12.6 -0.1 -14.4 1.8 -18 2.3 -4.5 9.8 -10.1 14.8 -11 7.6 -1.5 16.6 3.3 20.8 11 2.6 4.8 2.8 5.6 2.8 19.6 0 15 0.8 19.7 5.3 30.4 8 19.3 28.3 35.3 49.5 39.1 10 1.7 14.1 1.7 24.8 -0.1 12.8 -2.3 23.5 -7.7 33.1 -16.8 19.1 -18.2 25.1 -37.2 20.7 -65.4 -0.7 -4.3 -0.7 -4.3 9.3 -4.3 7.2 0 10.5 -0.4 11.9 -1.5 1 -0.8 2.2 -1.5 2.5 -1.5 0.4 0 1.7 2.4 3 5.3 2.1 4.7 2.3 7 2.7 26.2 0.5 22.9 -0.5 33.1 -3.9 39.7 -4.4 8.6 -13.6 16 -22.2 17.7 -3 0.6 -3.1 0.7 -4.9 11.6 -6.5 38.9 -29.2 75.8 -61.3 99.7 -19.5 14.5 -40.2 24 -63 28.8 -11.4 2.4 -38.6 3.5 -49.5 2z m32.9 -57.5 c17.2 -4.5 31.9 -18.5 37.1 -35.3 2.7 -8.7 2.6 -13.6 -0.2 -15.6 -3.3 -2.3 -5.8 -2 -5.8 0.7 0 3 -3.3 8.2 -6.7 10.4 -2.5 1.6 -5.6 1.8 -36.8 1.8 -31.2 0 -34.3 -0.2 -36.8 -1.8 -3.4 -2.2 -6.7 -7.4 -6.7 -10.6 0 -2.2 -0.3 -2.3 -4.2 -1.8 -7.3 1 -8.6 6 -4.4 17.8 5.9 16.7 19.8 29.8 36.6 34.5 6.2 1.7 21.4 1.7 27.9 -0.1z"/>
  <path d="M196 372 c-17.1 -3.2 -33 -15.1 -40.6 -30.6 -9 -18.4 -6.8 -41.6 5.6 -58.1 4 -5.2 4 -5.2 6.5 -2.8 1.3 1.4 3.2 2.5 4.1 2.5 1 0 4.5 -2.6 7.8 -5.9 7.5 -7.1 14.1 -10.6 26.1 -13.6 10.5 -2.7 14.1 -2.3 24.5 3 18.9 9.5 29.5 25.6 31.5 47.8 1.6 18 -9.8 39.9 -25.9 49.6 -12 7.2 -27.6 10.4 -39.6 8.1z m27.6 -39.9 c16.5 -7.5 11.6 -32.3 -6.5 -32.3 -15.8 0 -23.1 18.7 -11.5 29.3 5.4 5 11.5 6 18 3z"/>
  <path d="M372 372.3 c-23.3 -4 -41.8 -21.8 -46.7 -44.7 -5.5 -26.1 10.2 -53.9 36 -63.7 5.8 -2.2 5.9 -2.2 13.1 -0.5 10.6 2.5 18.6 6.7 26 13.5 3.6 3.4 7.1 6.1 7.9 6.1 2.5 0 5.7 -3.1 5.7 -5.6 0 -1.4 -0.8 -3.7 -1.7 -5.2 -1.8 -2.7 -1.8 -2.7 1.4 -0.4 5.3 3.7 12.9 13 16.2 19.6 11 22.5 6.9 48.1 -10.6 65.2 -12.3 12 -31.6 18.4 -47.3 15.7z m0.5 -41.3 c4.3 -2.7 7.5 -8.8 7.5 -14.5 0 -9.5 -7.1 -16.7 -16.5 -16.7 -8.6 0 -15.5 5.8 -17.1 14.5 -0.8 4.6 1.5 11.3 5 14.6 5.5 5.2 14.6 6.1 21.1 2.1z"/>
  <path d="M315.9 281.7 c-5.5 -6.4 -13.3 -10 -22.2 -10.1 -9.8 -0.1 -16 2.2 -22.7 8.4 -3 2.7 -5.4 4.9 -5.5 4.7 -2.7 -4.9 -7.7 -11.5 -12.4 -16.2 -6.1 -5.9 -6.1 -5.9 -3.9 -8.2 3.2 -3.4 1.6 -7.3 -3.7 -9.2 -6.4 -2.3 -45.4 -2.8 -54.8 -0.7 -16.3 3.7 -33.8 15.8 -41.6 28.8 -1.3 2.1 -2.9 3.8 -3.7 3.8 -1.7 0 -1.7 1 0 -13 0.8 -6.3 2 -19.1 2.6 -28.5 1.6 -26.1 1.2 -24.5 7.3 -28.5 2.8 -1.9 12.1 -10.3 20.4 -18.5 l15.3 -15 11.7 6.2 c47.4 25.1 98.8 37.7 140.8 34.4 30.7 -2.3 56.4 -10.5 76.6 -24.2 5.8 -3.9 5.8 -3.9 6.3 1.4 0.3 2.8 0.8 11.7 1.1 19.7 0.7 19.4 2.4 46.7 3.1 50.9 0.5 3.4 0.5 3.4 -5 -1.5 -7.2 -6.4 -14.7 -10.9 -23.8 -14.2 -7 -2.5 -8.3 -2.6 -31.3 -2.9 -28 -0.4 -36.4 0.5 -39.5 4.4 -2.6 3.3 -2.5 3.9 0.6 6.9 1.8 1.9 3.1 2.4 4.9 2 1.8 -0.5 0.9 0.9 -4.1 6.1 -3.6 3.8 -7.9 9.2 -9.6 12.1 -1.6 2.8 -3.1 5.2 -3.1 5.2 -0.1 -0.1 -1.8 -2 -3.8 -4.3z"/>
  <path d="M121.6 282.2 c0.5 -0.5 2.1 -1.3 3.7 -2 2.4 -1 2.7 -1 2.7 0.8 0 1.6 -0.7 2 -3.7 2 -2 0 -3.3 -0.4 -2.7 -0.8z"/>
  <path d="M449 281 c0 -2.5 2.2 -2.5 7.5 -0.1 4 1.9 4 1.9 -1.7 2 -5.2 0.1 -5.8 -0.1 -5.8 -1.9z"/>
 </g>
 <g fill="#dd8070">
  <path d="M200 777.8 c0.1 -14.3 0.1 -14.3 4 -18.8 4 -4.5 4 -4.5 0 -8.5 -4 -4.1 -4 -4.1 -3.8 -36.4 l0.3 -32.3 17 15.7 c9.4 8.7 18.4 17.1 20.1 18.7 3.2 3 3.2 3 15.8 -10.9 6.9 -7.6 12.6 -14.1 12.6 -14.4 0 -0.3 -14.8 -14.3 -32.9 -31 l-33 -30.4 0 -33.2 -0.1 -33.3 11.5 0 11.5 0 0 -20.5 0 -20.5 6.8 4.4 c13.9 9 27.8 14.6 41.9 17.1 11.1 1.9 31.7 1.9 42.8 0 10.8 -1.9 26.8 -7.8 35.8 -13.3 l6.7 -4.1 0 18.5 0 18.4 12.3 0.2 12.2 0.2 -12.5 0.5 c-11.9 0.6 -12.7 0.7 -17 3.7 -10.9 7.6 -27.1 14.2 -41.3 16.9 -26.4 5 -61 -2.3 -83.4 -17.7 -4.2 -2.8 -4.5 -2.9 -15.4 -2.6 l-11.1 0.3 48.6 45 c26.7 24.7 49 45.1 49.5 45.3 0.7 0.2 22.4 -23.1 80.8 -86.8 1.1 -1.2 1.3 4.3 1.3 34.2 l0 35.7 -71 77 -71.1 77.1 -19.4 0 -19.5 0 0 -14.2z"/>
  <path d="M274.6 790.8 c1.1 -1.8 105.4 -114.8 105.9 -114.8 0.3 0 0.5 15.7 0.5 35 l0 34.9 -21.1 23.1 -21.2 23 -32.4 0 c-25.2 0 -32.3 -0.3 -31.7 -1.2z"/>
  <path d="M273.5 525 c-31.5 -3.6 -58.8 -15.7 -85.9 -38.1 -26.3 -21.6 -46.8 -58.1 -52.3 -93.1 -1.5 -9.7 -1.9 -10.8 -3.8 -10.8 -4.1 0 -14.1 -5.7 -18.3 -10.5 -7.8 -8.8 -8.3 -11.8 -8 -42.9 0.3 -26.9 0.3 -27.1 2.9 -32.6 1.5 -3 4.1 -7.1 5.8 -9 1.9 -2.1 2.8 -2.6 2.2 -1.4 -0.6 1.2 -0.8 4.5 -0.4 7.3 0.8 6.6 2.7 8.1 10.7 8.1 4.4 0 6.2 0.4 7.2 1.8 1 1.3 1.7 1.5 3.1 0.6 1.7 -1 1.8 -0.4 1.8 12.5 0 16.2 1.9 25.9 7.2 35.8 9 17.2 23 28.8 41.3 34.4 11.1 3.5 27.4 3.3 38.5 -0.4 18.1 -6 32 -17.9 40.5 -34.8 5.2 -10.3 8.3 -28.3 7 -41.9 -0.7 -7.7 1 -12 6.4 -16.8 7.9 -7 19.2 -6.7 26.9 0.6 5.2 4.9 7 9.8 6.4 17.1 -0.6 8 0.7 22.3 2.9 30 1.8 6.2 7.9 18.2 12.1 23.8 3.8 5 14.3 13.5 21.1 17.1 10.9 5.8 18.5 7.7 31.2 7.7 10 0 12.7 -0.4 20.4 -2.9 17 -5.6 32 -18.5 39.6 -34 6.2 -12.5 7.5 -18.8 7.5 -35.9 l0 -14.7 9.3 0 c7.9 0 9.5 -0.3 11.2 -2 1.1 -1.1 2 -3 2.1 -4.2 0 -1.6 0.8 -0.7 2.7 3.2 2.5 5.3 2.6 6.4 3 26.5 0.5 22.9 -0.5 33.1 -3.9 39.7 -4.4 8.6 -13.6 16 -22.2 17.7 -3 0.6 -3.1 0.7 -4.9 11.6 -3.9 23.5 -14.5 47.9 -29.7 68.2 -13.7 18.4 -29.3 31.8 -51.4 44.1 -15.6 8.7 -29.6 13.6 -47.7 16.8 -10.8 1.8 -32.1 2.5 -42.5 1.4z m32.6 -58.1 c17.5 -5.1 32.6 -21.6 36.4 -39.7 1.5 -7 1 -9.3 -2.5 -11.2 -3.1 -1.7 -5 -1.2 -5 1.3 0 3 -3.3 8.2 -6.7 10.4 -2.5 1.6 -5.6 1.8 -36.8 1.8 -31.2 0 -34.3 -0.2 -36.8 -1.8 -3.4 -2.2 -6.7 -7.4 -6.7 -10.4 0 -1.9 -0.5 -2.3 -3.3 -2.3 -5 0 -7.7 2.4 -7.7 7 0 5.8 3.5 16 7.8 22.6 13.5 20.7 37.3 29.4 61.3 22.3z m-3.7 -83.3 c5.4 -3.1 8.7 -8.2 9.4 -14.3 0.4 -4.2 0.3 -4.5 -1.6 -3.9 -10.1 3.2 -30.2 3.3 -40.3 0.1 -4.5 -1.4 -0.8 10.5 4.9 15.8 6.7 6.3 19 7.4 27.6 2.3z"/>
 </g>
 <g fill="#c39477">
  <path d="M281 585.4 c-1.4 -0.2 -5.6 -0.9 -9.4 -1.5 -12.4 -2 -28.3 -8.1 -40.8 -15.6 -7.8 -4.7 -7.8 -4.7 -7.8 -25.5 l0 -20.8 6.8 4.4 c13.9 9 27.8 14.6 41.9 17.1 11.1 1.9 31.7 1.9 42.8 0 10.8 -1.9 26.8 -7.8 35.8 -13.3 l6.7 -4.1 0 18.8 c0 18.8 0 18.8 -5.3 22.4 -11.1 7.3 -24.4 12.9 -38.7 16.3 -6.4 1.5 -27.1 2.7 -32 1.8z"/>
  <path d="M273.5 525 c-31.5 -3.6 -58.8 -15.7 -85.9 -38.1 -26.3 -21.6 -46.8 -58.1 -52.3 -93.1 -1.5 -9.7 -1.9 -10.8 -3.8 -10.8 -4.1 0 -14.1 -5.7 -18.3 -10.5 -7.8 -8.8 -8.3 -11.8 -8 -42.9 0.3 -26.9 0.3 -27.1 2.9 -32.6 1.5 -3 4.1 -7.1 5.8 -9 1.9 -2.1 2.8 -2.6 2.2 -1.4 -0.6 1.2 -0.8 4.5 -0.4 7.3 0.8 6.6 2.7 8.1 10.7 8.1 4.4 0 6.2 0.4 7.2 1.8 1 1.3 1.7 1.5 3.1 0.6 1.7 -1 1.8 -0.4 1.8 12.5 0 16.2 1.9 25.9 7.2 35.8 9 17.2 23 28.8 41.3 34.4 11.1 3.5 27.4 3.3 38.5 -0.4 18.1 -6 32 -17.9 40.5 -34.8 5.2 -10.3 8.3 -28.3 7 -41.9 -0.7 -7.7 1 -12 6.4 -16.8 7.9 -7 19.2 -6.7 26.9 0.6 5.2 4.9 7 9.8 6.4 17.1 -0.6 8 0.7 22.3 2.9 30 1.8 6.2 7.9 18.2 12.1 23.8 3.8 5 14.3 13.5 21.1 17.1 10.9 5.8 18.5 7.7 31.2 7.7 10 0 12.7 -0.4 20.4 -2.9 17 -5.6 32 -18.5 39.6 -34 6.2 -12.5 7.5 -18.8 7.5 -35.9 l0 -14.7 9.3 0 c7.9 0 9.5 -0.3 11.2 -2 1.1 -1.1 2 -3 2.1 -4.2 0 -1.6 0.8 -0.7 2.7 3.2 2.5 5.3 2.6 6.4 3 26.5 0.5 22.9 -0.5 33.1 -3.9 39.7 -4.4 8.6 -13.6 16 -22.2 17.7 -3 0.6 -3.1 0.7 -4.9 11.6 -3.9 23.5 -14.5 47.9 -29.7 68.2 -13.7 18.4 -29.3 31.8 -51.4 44.1 -15.6 8.7 -29.6 13.6 -47.7 16.8 -10.8 1.8 -32.1 2.5 -42.5 1.4z m33.1 -58.1 c17.2 -5.3 32.2 -21.8 35.9 -39.7 1.5 -7 1 -9.3 -2.5 -11.2 -3.1 -1.7 -5 -1.2 -5 1.3 0 3 -3.3 8.2 -6.7 10.4 -2.5 1.6 -5.6 1.8 -36.8 1.8 -31.2 0 -34.3 -0.2 -36.8 -1.8 -3.4 -2.2 -6.7 -7.4 -6.7 -10.4 0 -1.9 -0.5 -2.3 -3.3 -2.3 -5 0 -7.7 2.4 -7.7 7 0 5.3 3.4 15.6 7.1 21.5 13.5 21.6 38.2 30.8 62.5 23.4z m-4.2 -83.3 c5.4 -3.1 8.7 -8.2 9.4 -14.3 0.4 -4.2 0.3 -4.5 -1.6 -3.9 -10.1 3.2 -30.2 3.3 -40.3 0.1 -4.5 -1.4 -0.8 10.5 4.9 15.8 6.7 6.3 19 7.4 27.6 2.3z"/>
  <path d="M196.3 372 c-19 -3.4 -35.4 -16.9 -42.8 -35.2 -2.7 -6.6 -2.9 -8.4 -2.9 -18.8 -0.1 -10.8 0.1 -11.9 3 -18 4.4 -9.2 12.2 -19.3 14.3 -18.4 4.6 1.9 5.7 1.6 11.7 -4.3 3.2 -3.2 8.4 -7.1 11.3 -8.6 4.9 -2.4 6.6 -2.7 15.5 -2.7 8.1 0 11.5 0.5 16.9 2.4 20 7.1 34 23.1 37.6 43.3 3.3 17.8 -8.6 42.1 -25.3 52.2 -11.9 7.1 -27 10.2 -39.3 8.1z m25.7 -39 c4.1 -1.1 9.4 -6.1 10.9 -10.3 4.8 -12.6 -7.1 -26.2 -19.9 -22.7 -4.6 1.2 -9.5 5.1 -11.5 9.1 -4 7.6 -0.2 18.9 7.7 22.8 4.8 2.3 7.6 2.6 12.8 1.1z"/>
  <path d="M373 372.4 c-10.2 -1.3 -22.7 -7.3 -30.7 -14.8 -15.4 -14.3 -21.7 -37 -15.1 -54.6 8 -21.6 28.8 -37 49.9 -37 8.8 0 14.9 2.9 23.5 11.1 3.3 3.3 7 5.9 8.1 5.9 2.2 0 5.3 -2.9 5.3 -5 0 -2 10.5 8.6 14.1 14.2 1.7 2.6 4.2 7.8 5.5 11.5 8.9 25.5 -8.7 57.8 -36.2 66.3 -6.5 2 -18.3 3.1 -24.4 2.4z m-2.4 -40.3 c10.4 -4.7 12.9 -19.1 4.8 -27.4 -3.9 -4.1 -9.7 -6.1 -14.8 -5.2 -16.7 3.2 -19.6 25.6 -4.2 32.6 5.2 2.3 9 2.3 14.2 0z"/>
  <path d="M315.6 281.3 c-2.1 -2.3 -6.4 -5.5 -9.5 -7 -4.7 -2.3 -6.9 -2.8 -13.6 -2.8 -6.7 0 -8.9 0.5 -13.7 2.8 -3.1 1.5 -7.2 4.5 -9.2 6.7 -3.5 3.9 -3.5 3.9 -7.3 -1.8 -2.1 -3.1 -6.3 -8.3 -9.4 -11.4 -3.2 -3.2 -5.3 -5.8 -4.8 -5.8 1.5 0 3.1 -4.1 2.5 -6.6 -1.3 -5 -8.4 -6.3 -34.9 -6.4 -23.1 -0.1 -27.3 0.6 -40.6 7.1 -9.3 4.6 -21.4 15.2 -25.7 22.5 -2.9 4.8 -5.9 5.1 -5 0.5 1 -5.1 2.7 -21.9 4.1 -42 1.1 -16.1 1.8 -20.7 3 -21.3 4.5 -2.6 17.4 -13.9 27.7 -24.2 l11.6 -11.8 19.4 9.5 c43.4 21.5 81.3 31.3 120.8 31.1 33.6 -0.1 60.5 -7 84.9 -21.7 5.2 -3.2 9.6 -5.5 9.8 -5.3 0.3 0.2 1.1 12.9 1.8 28.1 1.6 32 2.4 44 3.1 47.5 0.5 2.3 0.2 2.2 -3.8 -1.6 -13.5 -12.6 -28.4 -18.5 -46.8 -18.4 -41 0.2 -48.1 1 -50.2 5.6 -1.6 3.4 1.7 7.9 5.8 7.9 2.9 0 2.8 0 -2.8 5.6 -3.1 3.1 -7.4 8.3 -9.5 11.5 -3.8 5.9 -3.8 5.9 -7.7 1.7z"/>
  <path d="M121.8 282 c0.4 -0.3 1.9 -1.1 3.5 -1.8 2.2 -0.9 2.7 -0.9 2.7 0.2 0 0.8 -1.4 1.5 -3.5 1.8 -1.9 0.2 -3.2 0.1 -2.7 -0.2z"/>
 </g>
 <g fill="#d4a181">
  <path d="M281 585.4 c-1.4 -0.2 -5.6 -0.9 -9.4 -1.5 -12.4 -2 -28.3 -8.1 -40.8 -15.6 -7.8 -4.7 -7.8 -4.7 -7.8 -25 0 -11.2 0.2 -20.3 0.4 -20.3 0.2 0 4.3 2.4 9 5.4 32.7 20.5 74.3 23 109.4 6.6 4.5 -2.1 9.5 -4.8 11.1 -5.9 1.6 -1.2 3.2 -2.1 3.5 -2.1 0.3 0 0.6 8.3 0.6 18.4 0 18.4 0 18.4 -7.2 22.9 -13.3 8.2 -23.2 12.3 -37.3 15.3 -6.9 1.5 -26.7 2.7 -31.5 1.8z"/>
  <path d="M263.4 523.1 c-42.6 -7.5 -80.9 -32.8 -104.7 -69.1 -11.5 -17.5 -20.2 -40 -23.4 -60.2 -1.5 -9.7 -1.9 -10.8 -3.8 -10.8 -4.1 0 -14.1 -5.7 -18.3 -10.5 -7.8 -8.8 -8.3 -11.8 -8 -42.9 0.3 -26.9 0.3 -27.1 2.9 -32.6 1.5 -3 4.1 -7.1 5.9 -9 1.8 -1.9 2.7 -2.8 2.1 -1.9 -1.1 1.6 -0.9 10.1 0.3 13 1.1 2.5 5.1 3.9 11.1 3.9 3 0 5.7 0.5 6.1 1.1 0.3 0.6 1.6 0.9 2.8 0.7 2.1 -0.4 2.1 -0.2 1.8 11.4 -0.7 23.6 5 39 19.8 53.8 13.7 13.7 28.6 20 47.6 20 18.8 0 33.5 -6.2 47.5 -20 7.4 -7.3 9.3 -9.9 13.2 -18 5.6 -11.8 6.9 -18.8 6.9 -36.2 0 -13.5 0 -13.8 2.9 -18.2 11.6 -17.5 38.9 -6.8 36.4 14.2 -0.8 7.1 0.9 24.4 3.1 30.9 3.3 9.8 7.8 17.6 14.8 25 15.3 16.5 32 23.2 53.9 22 21.7 -1.2 40.4 -11.9 52.1 -29.6 8.9 -13.6 12.1 -26.1 11.4 -45.2 l-0.4 -11.9 8.7 0 c9.9 0 13.8 -1.9 14 -6.8 0.1 -2.3 0.5 -1.8 2.7 2.8 2.5 5.3 2.6 6.4 3 26.5 0.5 22.9 -0.5 33.1 -3.9 39.7 -4.4 8.6 -13.6 16 -22.2 17.7 -3 0.6 -3.1 0.7 -4.9 11.6 -3.9 23.5 -14.5 47.9 -29.7 68.2 -23.8 31.9 -59.4 53.6 -98.9 60.4 -14.8 2.5 -38.4 2.5 -52.8 0z m37.1 -54.6 c20.9 -4.4 37.2 -20.3 42 -40.9 1.7 -7.1 1.1 -9.7 -2.5 -11.6 -3.4 -1.8 -4.7 -1.2 -5.5 2.7 -0.8 4.6 -5 8.8 -10.1 10.2 -5.3 1.5 -60.5 1.5 -65.8 0 -5.1 -1.4 -9.3 -5.6 -10.1 -10.2 -0.7 -3.4 -1 -3.7 -4 -3.7 -7.8 0 -9.5 5.5 -5.5 17.6 5.9 17.7 21.8 31.9 40 35.8 8.5 1.9 13 1.9 21.5 0.1z m-0.7 -83 c6.7 -2.9 11.2 -8.8 12.8 -16.9 0.7 -3.9 0.7 -3.9 -2.7 -3.2 -12.8 2.6 -27 2.7 -39.5 0.1 -3.1 -0.7 -3.1 -0.7 -2.4 3.7 1.2 7.8 5.9 13.8 13 16.7 3.9 1.5 14.6 1.3 18.8 -0.4z"/>
  <path d="M197.5 372 c-22.1 -3.5 -40.3 -20 -45.9 -41.7 -3.7 -14 -0.5 -28.5 9.2 -41.5 4.8 -6.5 6.8 -8.3 7.7 -6.8 1.5 2.4 5.4 0.8 10.6 -4.3 3 -2.9 7.7 -6.6 10.4 -8.2 4.8 -2.8 5.5 -2.9 16.5 -2.9 10.1 0 12.4 0.4 18.5 2.8 16.7 6.5 28.5 18.7 34.1 35.3 5.1 15.2 2.4 30.1 -8.1 44.9 -11.8 16.4 -33.4 25.6 -53 22.4z m27.2 -40.1 c10.7 -5.2 12.6 -20.5 3.5 -28.1 -8.8 -7.4 -20.7 -5.4 -26.1 4.2 -1.9 3.4 -2.2 5.3 -1.9 9.9 0.5 7 3.4 11.6 9.2 14.2 5.4 2.4 10 2.4 15.3 -0.2z"/>
  <path d="M372 372 c-26.5 -4.1 -46.9 -27.1 -47.1 -52.9 -0.1 -13.8 6 -27.2 17.1 -37.4 10.4 -9.6 20.5 -14.3 33.7 -15.4 6.6 -0.5 7.7 -0.3 12.9 2.3 3.2 1.6 8.5 5.5 11.7 8.7 7.1 6.7 10.6 7.4 13.3 2.5 2.2 -4.1 13.5 9.4 19 22.7 2.4 6 2.8 8.3 2.8 16.5 0 7.9 -0.5 10.7 -2.7 16.5 -6.7 17.2 -18.9 28.8 -35.8 34.3 -7.7 2.5 -17.4 3.4 -24.9 2.2z m-1.4 -39.9 c4.9 -2.2 8 -6 9.5 -11.3 3.6 -13.5 -10.5 -25.7 -23.3 -20 -11 4.8 -14.2 18.1 -6.5 26.9 5.6 6.3 12.6 7.9 20.3 4.4z"/>
  <path d="M315.6 281.3 c-2.1 -2.4 -6.4 -5.5 -9.5 -7 -4.7 -2.4 -6.9 -2.8 -13.6 -2.8 -9.6 0 -15 2.2 -22.1 8.7 -4.3 4 -4.8 4.2 -5.8 2.4 -2.9 -5 -10.2 -14 -13.6 -16.8 -3.6 -3.1 -3.6 -3.2 -1.8 -5 3.1 -3.1 2 -7 -2.7 -9.3 -3.4 -1.6 -7 -2 -23 -2.5 -28.9 -1 -39.2 0.9 -53 9.5 -7.2 4.5 -17.4 14.2 -21.7 20.7 -3.8 5.9 -4.7 3.7 -3.2 -8.2 0.7 -5.8 1.8 -17.5 2.4 -26 2.1 -30.4 1.1 -27.2 9.9 -33.8 4.2 -3.1 13.4 -11.5 20.5 -18.7 12.8 -12.9 12.8 -12.9 16 -11.1 7.2 4.3 28.9 14.7 39.5 19 56 22.7 109.1 26.4 155.8 11 7 -2.3 21.8 -9.6 29.2 -14.4 3.5 -2.2 6.5 -3.9 6.7 -3.7 0.2 0.2 1.1 13.8 1.9 30.3 0.9 16.4 1.9 33.8 2.3 38.6 l0.8 8.6 -5.8 -5.3 c-6.4 -6 -18.8 -12.6 -28.3 -15.1 -6.2 -1.6 -13.3 -1.8 -43 -1.2 -17.9 0.4 -22.9 1.7 -24 6.1 -0.9 3.5 1.1 6.7 4.5 7.4 2.9 0.5 2.9 0.5 -3.2 7.4 -3.4 3.7 -7.3 8.7 -8.7 11.1 -2.6 4.3 -2.6 4.3 -6.5 0.1z"/>
  <path d="M123 281.3 c0.8 -0.3 2.3 -1 3.3 -1.5 1.2 -0.6 1.7 -0.5 1.7 0.7 0 1 -1 1.5 -3.2 1.4 -1.8 0 -2.6 -0.3 -1.8 -0.6z"/>
  <path d="M449 280.5 c0 -1.8 2.5 -1.9 6.5 0 3 1.3 3 1.3 -1.7 1.4 -3.6 0.1 -4.8 -0.3 -4.8 -1.4z"/>
  <path d="M338 262.5 c0 -0.3 0.2 -0.5 0.5 -0.5 0.3 0 0.5 0.2 0.5 0.5 0 0.3 -0.2 0.5 -0.5 0.5 -0.3 0 -0.5 -0.2 -0.5 -0.5z"/>
 </g>
 <g fill="#ee8f8f">
  <path d="M200 777.9 c0 -14.1 0 -14.1 4 -18.7 4.1 -4.6 4.1 -4.6 0 -8.7 -4 -4.1 -4 -4.1 -3.8 -36.3 l0.3 -32.2 19.5 18 c10.7 9.9 19.6 18.5 19.8 19 0.3 0.9 26.2 -26.8 26.2 -28.1 0 -0.3 -14.8 -14.3 -32.9 -31 l-32.9 -30.4 -0.1 -32.9 -0.1 -32.8 10.8 10 c5.9 5.4 28 26 49.2 45.6 21.2 19.7 38.4 36.3 38.2 36.9 -0.2 0.6 1.4 -0.8 3.5 -3.1 19.8 -22.1 78 -85.1 78.6 -85.1 0.4 -0.1 0.7 15.6 0.7 34.8 l0 34.9 -71.1 77.1 -71 77.1 -19.5 0 -19.4 0 0 -14.1z m18 -33.4 c0 -0.3 -0.2 -0.5 -0.5 -0.5 -0.3 0 -0.5 0.2 -0.5 0.5 0 0.3 0.2 0.5 0.5 0.5 0.3 0 0.5 -0.2 0.5 -0.5z m11 -12 c0 -0.3 -0.2 -0.5 -0.5 -0.5 -0.3 0 -0.5 0.2 -0.5 0.5 0 0.3 0.2 0.5 0.5 0.5 0.3 0 0.5 -0.2 0.5 -0.5z"/>
  <path d="M275.7 789.6 c2.5 -3.3 104.4 -113.6 104.9 -113.6 0.2 0 0.4 15.7 0.4 34.9 l0 34.9 -21.2 23.1 -21.1 23.1 -32.4 0 c-32.5 0 -32.5 0 -30.6 -2.4z"/>
 </g>
 <g fill="#ffffff">
  <path d="M257.7 428.6 c-2 -0.8 -4.5 -2 -5.4 -2.7 -1.6 -1.4 -4.3 -6.9 -4.3 -8.9 0 -0.7 14.3 -1 43.6 -1 43.6 0 43.6 0 42.9 2.8 -1 4.1 -3.2 7 -6.8 8.9 -2.8 1.6 -6.7 1.8 -34.7 2 -24.6 0.2 -32.3 0 -35.3 -1.1z"/>
 </g>
</svg>